<?xml version="1.0" encoding="UTF-8" standalone="no"?>
<!-- Created with Inkscape (http://www.inkscape.org/) -->

<svg
   xmlns:dc="http://purl.org/dc/elements/1.1/"
   xmlns:cc="http://creativecommons.org/ns#"
   xmlns:rdf="http://www.w3.org/1999/02/22-rdf-syntax-ns#"
   xmlns:svg="http://www.w3.org/2000/svg"
   xmlns="http://www.w3.org/2000/svg"
   xmlns:sodipodi="http://sodipodi.sourceforge.net/DTD/sodipodi-0.dtd"
   xmlns:inkscape="http://www.inkscape.org/namespaces/inkscape"
   width="284.45999"
   height="284.45999"
   id="svg2"
   version="1.1"
   inkscape:version="0.48.3.1 r9886"
   sodipodi:docname="points.svg">
  <defs
     id="defs4" />
  <sodipodi:namedview
     id="base"
     pagecolor="#ffffff"
     bordercolor="#666666"
     borderopacity="1.0"
     inkscape:pageopacity="0.0"
     inkscape:pageshadow="2"
     inkscape:zoom="1"
     inkscape:cx="511.49056"
     inkscape:cy="-6.4000684"
     inkscape:document-units="px"
     inkscape:current-layer="layer1"
     showgrid="false"
     inkscape:window-width="1280"
     inkscape:window-height="1000"
     inkscape:window-x="0"
     inkscape:window-y="24"
     inkscape:window-maximized="1" />
  <metadata
     id="metadata7">
    <rdf:RDF>
      <cc:Work
         rdf:about="">
        <dc:format>image/svg+xml</dc:format>
        <dc:type
           rdf:resource="http://purl.org/dc/dcmitype/StillImage" />
        <dc:title></dc:title>
      </cc:Work>
    </rdf:RDF>
  </metadata>
  <g
     inkscape:label="Camada 1"
     inkscape:groupmode="layer"
     id="layer1"
     transform="translate(0,-767.90218)">
    <path
       inkscape:transform-center-y="-230.73288"
       transform="matrix(0.70331651,0.12401368,-0.12401369,0.70331651,-34.42679,419.29564)"
       d="m 367.5,462.36218 a 3.5,3.5 0 1 1 -7,0 3.5,3.5 0 1 1 7,0 z"
       sodipodi:ry="3.5"
       sodipodi:rx="3.5"
       sodipodi:cy="462.36218"
       sodipodi:cx="364"
       id="path3953"
       style="opacity:0.5;fill:#eeeeee;fill-opacity:1;stroke:none"
       sodipodi:type="arc"
       inkscape:transform-center-x="-40.409986"
       inkscape:export-filename="/home/michal/Obrazy/tapety/ubu_phone/ubu_phone1440x900.png"
       inkscape:export-xdpi="90"
       inkscape:export-ydpi="90" />
    <path
       inkscape:transform-center-y="-220.13969"
       transform="matrix(0.67102639,0.24423363,-0.24423363,0.6710264,53.726072,396.00509)"
       d="m 367.5,462.36218 a 3.5,3.5 0 1 1 -7,0 3.5,3.5 0 1 1 7,0 z"
       sodipodi:ry="3.5"
       sodipodi:rx="3.5"
       sodipodi:cy="462.36218"
       sodipodi:cx="364"
       id="path3955"
       style="opacity:0.5;fill:#eeeeee;fill-opacity:1;stroke:none"
       sodipodi:type="arc"
       inkscape:transform-center-x="-79.583799"
       inkscape:export-filename="/home/michal/Obrazy/tapety/ubu_phone/ubu_phone1440x900.png"
       inkscape:export-xdpi="90"
       inkscape:export-ydpi="90" />
    <path
       inkscape:transform-center-y="-202.90319"
       transform="matrix(0.6184863,0.35708323,-0.35708323,0.61848631,144.55788,388.2655)"
       d="m 367.5,462.36218 a 3.5,3.5 0 1 1 -7,0 3.5,3.5 0 1 1 7,0 z"
       sodipodi:ry="3.5"
       sodipodi:rx="3.5"
       sodipodi:cy="462.36218"
       sodipodi:cx="364"
       id="path3957"
       style="opacity:0.5;fill:#eeeeee;fill-opacity:1;stroke:none"
       sodipodi:type="arc"
       inkscape:transform-center-x="-116.35597"
       inkscape:export-filename="/home/michal/Obrazy/tapety/ubu_phone/ubu_phone1440x900.png"
       inkscape:export-xdpi="90"
       inkscape:export-ydpi="90" />
    <path
       inkscape:transform-center-y="-179.50418"
       transform="matrix(0.54716185,0.45912333,-0.45912333,0.54716185,235.35127,396.37678)"
       d="m 367.5,462.36218 a 3.5,3.5 0 1 1 -7,0 3.5,3.5 0 1 1 7,0 z"
       sodipodi:ry="3.5"
       sodipodi:rx="3.5"
       sodipodi:cy="462.36218"
       sodipodi:cx="364"
       id="path3959"
       style="opacity:0.5;fill:#eeeeee;fill-opacity:1;stroke:none"
       sodipodi:type="arc"
       inkscape:transform-center-x="-149.60583"
       inkscape:export-filename="/home/michal/Obrazy/tapety/ubu_phone/ubu_phone1440x900.png"
       inkscape:export-xdpi="90"
       inkscape:export-ydpi="90" />
    <path
       inkscape:transform-center-y="-150.62188"
       transform="matrix(0.45912333,0.54716185,-0.54716185,0.45912333,323.34016,420.17081)"
       d="m 367.5,462.36218 a 3.5,3.5 0 1 1 -7,0 3.5,3.5 0 1 1 7,0 z"
       sodipodi:ry="3.5"
       sodipodi:rx="3.5"
       sodipodi:cy="462.36218"
       sodipodi:cx="364"
       id="path3961"
       style="opacity:0.5;fill:#eeeeee;fill-opacity:1;stroke:none"
       sodipodi:type="arc"
       inkscape:transform-center-x="-178.29338"
       inkscape:export-filename="/home/michal/Obrazy/tapety/ubu_phone/ubu_phone1440x900.png"
       inkscape:export-xdpi="90"
       inkscape:export-ydpi="90" />
    <path
       inkscape:transform-center-y="-117.1462"
       transform="matrix(0.35708325,0.61848629,-0.61848629,0.35708325,405.8199,458.92093)"
       d="m 367.5,462.36218 a 3.5,3.5 0 1 1 -7,0 3.5,3.5 0 1 1 7,0 z"
       sodipodi:ry="3.5"
       sodipodi:rx="3.5"
       sodipodi:cy="462.36218"
       sodipodi:cx="364"
       id="path3963"
       style="opacity:0.5;fill:#eeeeee;fill-opacity:1;stroke:none"
       sodipodi:type="arc"
       inkscape:transform-center-x="-201.53446"
       inkscape:export-filename="/home/michal/Obrazy/tapety/ubu_phone/ubu_phone1440x900.png"
       inkscape:export-xdpi="90"
       inkscape:export-ydpi="90" />
    <path
       inkscape:transform-center-y="-80.124275"
       transform="matrix(0.24423363,0.6710264,-0.67102639,0.24423363,480.29633,511.37178)"
       d="m 367.5,462.36218 a 3.5,3.5 0 1 1 -7,0 3.5,3.5 0 1 1 7,0 z"
       sodipodi:ry="3.5"
       sodipodi:rx="3.5"
       sodipodi:cy="462.36218"
       sodipodi:cx="364"
       id="path3965"
       style="opacity:0.5;fill:#eeeeee;fill-opacity:1;stroke:none"
       sodipodi:type="arc"
       inkscape:transform-center-x="-218.65474"
       inkscape:export-filename="/home/michal/Obrazy/tapety/ubu_phone/ubu_phone1440x900.png"
       inkscape:export-xdpi="90"
       inkscape:export-ydpi="90" />
    <path
       inkscape:transform-center-y="-40.684422"
       transform="matrix(0.12401369,0.70331651,-0.70331651,0.12401368,544.56353,575.87705)"
       d="m 367.5,462.36218 a 3.5,3.5 0 1 1 -7,0 3.5,3.5 0 1 1 7,0 z"
       sodipodi:ry="3.5"
       sodipodi:rx="3.5"
       sodipodi:cy="462.36218"
       sodipodi:cx="364"
       id="path3967"
       style="opacity:0.5;fill:#eeeeee;fill-opacity:1;stroke:none"
       sodipodi:type="arc"
       inkscape:transform-center-x="-229.17653"
       inkscape:export-filename="/home/michal/Obrazy/tapety/ubu_phone/ubu_phone1440x900.png"
       inkscape:export-xdpi="90"
       inkscape:export-ydpi="90" />
    <path
       transform="matrix(0,0.71428571,-0.71428571,0,596.65462,650.54494)"
       d="m 367.5,462.36218 a 3.5,3.5 0 1 1 -7,0 3.5,3.5 0 1 1 7,0 z"
       sodipodi:ry="3.5"
       sodipodi:rx="3.5"
       sodipodi:cy="462.36218"
       sodipodi:cx="364"
       id="path3969"
       style="opacity:0.5;fill:#eeeeee;fill-opacity:1;stroke:none"
       sodipodi:type="arc"
       inkscape:transform-center-x="-232.75078"
       inkscape:export-filename="/home/michal/Obrazy/tapety/ubu_phone/ubu_phone1440x900.png"
       inkscape:export-xdpi="90"
       inkscape:export-ydpi="90" />
    <path
       inkscape:transform-center-y="40.684426"
       transform="matrix(-0.12401369,0.70331651,-0.70331651,-0.12401368,634.84548,733.19901)"
       d="m 367.5,462.36218 a 3.5,3.5 0 1 1 -7,0 3.5,3.5 0 1 1 7,0 z"
       sodipodi:ry="3.5"
       sodipodi:rx="3.5"
       sodipodi:cy="462.36218"
       sodipodi:cx="364"
       id="path3971"
       style="opacity:0.5;fill:#eeeeee;fill-opacity:1;stroke:none"
       sodipodi:type="arc"
       inkscape:transform-center-x="-229.17649"
       inkscape:export-filename="/home/michal/Obrazy/tapety/ubu_phone/ubu_phone1440x900.png"
       inkscape:export-xdpi="90"
       inkscape:export-ydpi="90" />
    <path
       inkscape:transform-center-y="80.124287"
       transform="matrix(-0.24423363,0.6710264,-0.67102639,-0.24423363,658.09838,821.21189)"
       d="m 367.5,462.36218 a 3.5,3.5 0 1 1 -7,0 3.5,3.5 0 1 1 7,0 z"
       sodipodi:ry="3.5"
       sodipodi:rx="3.5"
       sodipodi:cy="462.36218"
       sodipodi:cx="364"
       id="path3973"
       style="opacity:0.5;fill:#eeeeee;fill-opacity:1;stroke:none"
       sodipodi:type="arc"
       inkscape:transform-center-x="-218.65467"
       inkscape:export-filename="/home/michal/Obrazy/tapety/ubu_phone/ubu_phone1440x900.png"
       inkscape:export-xdpi="90"
       inkscape:export-ydpi="90" />
    <path
       inkscape:transform-center-y="150.62184"
       transform="matrix(-0.45912333,0.54716185,-0.54716185,-0.45912333,657.58189,1002.5853)"
       d="m 367.5,462.36218 a 3.5,3.5 0 1 1 -7,0 3.5,3.5 0 1 1 7,0 z"
       sodipodi:ry="3.5"
       sodipodi:rx="3.5"
       sodipodi:cy="462.36218"
       sodipodi:cx="364"
       id="path3975"
       style="opacity:0.5;fill:#eeeeee;fill-opacity:1;stroke:none"
       sodipodi:type="arc"
       inkscape:transform-center-x="-178.29329"
       inkscape:export-filename="/home/michal/Obrazy/tapety/ubu_phone/ubu_phone1440x900.png"
       inkscape:export-xdpi="90"
       inkscape:export-ydpi="90" />
    <path
       inkscape:transform-center-y="179.50424"
       transform="matrix(-0.54716185,0.45912333,-0.45912333,-0.54716185,633.68517,1090.4714)"
       d="m 367.5,462.36218 a 3.5,3.5 0 1 1 -7,0 3.5,3.5 0 1 1 7,0 z"
       sodipodi:ry="3.5"
       sodipodi:rx="3.5"
       sodipodi:cy="462.36218"
       sodipodi:cx="364"
       id="path3977"
       style="opacity:0.5;fill:#eeeeee;fill-opacity:1;stroke:none"
       sodipodi:type="arc"
       inkscape:transform-center-x="-149.60593"
       inkscape:export-filename="/home/michal/Obrazy/tapety/ubu_phone/ubu_phone1440x900.png"
       inkscape:export-xdpi="90"
       inkscape:export-ydpi="90" />
    <path
       inkscape:transform-center-y="202.9032"
       transform="matrix(-0.6184863,0.35708323,-0.35708323,-0.61848631,594.81591,1172.8686)"
       d="m 367.5,462.36218 a 3.5,3.5 0 1 1 -7,0 3.5,3.5 0 1 1 7,0 z"
       sodipodi:ry="3.5"
       sodipodi:rx="3.5"
       sodipodi:cy="462.36218"
       sodipodi:cx="364"
       id="path3979"
       style="opacity:0.5;fill:#eeeeee;fill-opacity:1;stroke:none"
       sodipodi:type="arc"
       inkscape:transform-center-x="-116.35597"
       inkscape:export-filename="/home/michal/Obrazy/tapety/ubu_phone/ubu_phone1440x900.png"
       inkscape:export-xdpi="90"
       inkscape:export-ydpi="90" />
    <path
       inkscape:transform-center-y="220.13966"
       transform="matrix(-0.67102639,0.24423363,-0.24423363,-0.6710264,542.2333,1247.2838)"
       d="m 367.5,462.36218 a 3.5,3.5 0 1 1 -7,0 3.5,3.5 0 1 1 7,0 z"
       sodipodi:ry="3.5"
       sodipodi:rx="3.5"
       sodipodi:cy="462.36218"
       sodipodi:cx="364"
       id="path3981"
       style="opacity:0.5;fill:#eeeeee;fill-opacity:1;stroke:none"
       sodipodi:type="arc"
       inkscape:transform-center-x="-79.583845"
       inkscape:export-filename="/home/michal/Obrazy/tapety/ubu_phone/ubu_phone1440x900.png"
       inkscape:export-xdpi="90"
       inkscape:export-ydpi="90" />
    <path
       inkscape:transform-center-y="230.73295"
       transform="matrix(-0.70331651,0.12401368,-0.12401369,-0.70331651,477.58765,1311.513)"
       d="m 367.5,462.36218 a 3.5,3.5 0 1 1 -7,0 3.5,3.5 0 1 1 7,0 z"
       sodipodi:ry="3.5"
       sodipodi:rx="3.5"
       sodipodi:cy="462.36218"
       sodipodi:cx="364"
       id="path3983"
       style="opacity:0.5;fill:#eeeeee;fill-opacity:1;stroke:none"
       sodipodi:type="arc"
       inkscape:transform-center-x="-40.410017"
       inkscape:export-filename="/home/michal/Obrazy/tapety/ubu_phone/ubu_phone1440x900.png"
       inkscape:export-xdpi="90"
       inkscape:export-ydpi="90" />
    <path
       inkscape:transform-center-y="230.73289"
       transform="matrix(-0.70331651,-0.12401368,0.12401369,-0.70331651,319.976,1401.7949)"
       d="m 367.5,462.36218 a 3.5,3.5 0 1 1 -7,0 3.5,3.5 0 1 1 7,0 z"
       sodipodi:ry="3.5"
       sodipodi:rx="3.5"
       sodipodi:cy="462.36218"
       sodipodi:cx="364"
       id="path3985"
       style="opacity:0.5;fill:#eeeeee;fill-opacity:1;stroke:none"
       sodipodi:type="arc"
       inkscape:transform-center-x="40.410066"
       inkscape:export-filename="/home/michal/Obrazy/tapety/ubu_phone/ubu_phone1440x900.png"
       inkscape:export-xdpi="90"
       inkscape:export-ydpi="90" />
    <path
       inkscape:transform-center-y="220.13966"
       transform="matrix(-0.67102639,-0.24423363,0.24423363,-0.6710264,231.82277,1425.0857)"
       d="m 367.5,462.36218 a 3.5,3.5 0 1 1 -7,0 3.5,3.5 0 1 1 7,0 z"
       sodipodi:ry="3.5"
       sodipodi:rx="3.5"
       sodipodi:cy="462.36218"
       sodipodi:cx="364"
       id="path3987"
       style="opacity:0.5;fill:#eeeeee;fill-opacity:1;stroke:none"
       sodipodi:type="arc"
       inkscape:transform-center-x="79.583802"
       inkscape:export-filename="/home/michal/Obrazy/tapety/ubu_phone/ubu_phone1440x900.png"
       inkscape:export-xdpi="90"
       inkscape:export-ydpi="90" />
    <path
       inkscape:transform-center-y="202.90312"
       transform="matrix(-0.6184863,-0.35708323,0.35708323,-0.61848631,140.99138,1432.8248)"
       d="m 367.5,462.36218 a 3.5,3.5 0 1 1 -7,0 3.5,3.5 0 1 1 7,0 z"
       sodipodi:ry="3.5"
       sodipodi:rx="3.5"
       sodipodi:cy="462.36218"
       sodipodi:cx="364"
       id="path3989"
       style="opacity:0.5;fill:#eeeeee;fill-opacity:1;stroke:none"
       sodipodi:type="arc"
       inkscape:transform-center-x="116.35598"
       inkscape:export-filename="/home/michal/Obrazy/tapety/ubu_phone/ubu_phone1440x900.png"
       inkscape:export-xdpi="90"
       inkscape:export-ydpi="90" />
    <path
       inkscape:transform-center-y="179.50415"
       transform="matrix(-0.54716185,-0.45912333,0.45912333,-0.54716185,50.198534,1424.7131)"
       d="m 367.5,462.36218 a 3.5,3.5 0 1 1 -7,0 3.5,3.5 0 1 1 7,0 z"
       sodipodi:ry="3.5"
       sodipodi:rx="3.5"
       sodipodi:cy="462.36218"
       sodipodi:cx="364"
       id="path3991"
       style="opacity:0.5;fill:#eeeeee;fill-opacity:1;stroke:none"
       sodipodi:type="arc"
       inkscape:transform-center-x="149.60584"
       inkscape:export-filename="/home/michal/Obrazy/tapety/ubu_phone/ubu_phone1440x900.png"
       inkscape:export-xdpi="90"
       inkscape:export-ydpi="90" />
    <path
       inkscape:transform-center-y="150.62191"
       transform="matrix(-0.45912333,-0.54716185,0.54716185,-0.45912333,-37.790316,1400.9192)"
       d="m 367.5,462.36218 a 3.5,3.5 0 1 1 -7,0 3.5,3.5 0 1 1 7,0 z"
       sodipodi:ry="3.5"
       sodipodi:rx="3.5"
       sodipodi:cy="462.36218"
       sodipodi:cx="364"
       id="path3993"
       style="opacity:0.5;fill:#eeeeee;fill-opacity:1;stroke:none"
       sodipodi:type="arc"
       inkscape:transform-center-x="178.29334"
       inkscape:export-filename="/home/michal/Obrazy/tapety/ubu_phone/ubu_phone1440x900.png"
       inkscape:export-xdpi="90"
       inkscape:export-ydpi="90" />
    <path
       inkscape:transform-center-y="117.14619"
       transform="matrix(-0.35708323,-0.61848631,0.6184863,-0.35708323,-120.27066,1362.1696)"
       d="m 367.5,462.36218 a 3.5,3.5 0 1 1 -7,0 3.5,3.5 0 1 1 7,0 z"
       sodipodi:ry="3.5"
       sodipodi:rx="3.5"
       sodipodi:cy="462.36218"
       sodipodi:cx="364"
       id="path3995"
       style="opacity:0.5;fill:#eeeeee;fill-opacity:1;stroke:none"
       sodipodi:type="arc"
       inkscape:transform-center-x="201.53447"
       inkscape:export-filename="/home/michal/Obrazy/tapety/ubu_phone/ubu_phone1440x900.png"
       inkscape:export-xdpi="90"
       inkscape:export-ydpi="90" />
    <path
       inkscape:transform-center-y="80.124266"
       transform="matrix(-0.24423363,-0.6710264,0.67102639,-0.24423363,-194.74747,1309.7192)"
       d="m 367.5,462.36218 a 3.5,3.5 0 1 1 -7,0 3.5,3.5 0 1 1 7,0 z"
       sodipodi:ry="3.5"
       sodipodi:rx="3.5"
       sodipodi:cy="462.36218"
       sodipodi:cx="364"
       id="path3997"
       style="opacity:0.5;fill:#eeeeee;fill-opacity:1;stroke:none"
       sodipodi:type="arc"
       inkscape:transform-center-x="218.65471"
       inkscape:export-filename="/home/michal/Obrazy/tapety/ubu_phone/ubu_phone1440x900.png"
       inkscape:export-xdpi="90"
       inkscape:export-ydpi="90" />
    <path
       inkscape:transform-center-y="40.684408"
       transform="matrix(-0.12401369,-0.70331651,0.70331651,-0.12401368,-259.01423,1245.2134)"
       d="m 367.5,462.36218 a 3.5,3.5 0 1 1 -7,0 3.5,3.5 0 1 1 7,0 z"
       sodipodi:ry="3.5"
       sodipodi:rx="3.5"
       sodipodi:cy="462.36218"
       sodipodi:cx="364"
       id="path3999"
       style="opacity:0.5;fill:#eeeeee;fill-opacity:1;stroke:none"
       sodipodi:type="arc"
       inkscape:transform-center-x="229.17646"
       inkscape:export-filename="/home/michal/Obrazy/tapety/ubu_phone/ubu_phone1440x900.png"
       inkscape:export-xdpi="90"
       inkscape:export-ydpi="90" />
    <path
       transform="matrix(0,-0.71428571,0.71428571,0,-311.10471,1170.545)"
       d="m 367.5,462.36218 a 3.5,3.5 0 1 1 -7,0 3.5,3.5 0 1 1 7,0 z"
       sodipodi:ry="3.5"
       sodipodi:rx="3.5"
       sodipodi:cy="462.36218"
       sodipodi:cx="364"
       id="path4001"
       style="opacity:0.5;fill:#eeeeee;fill-opacity:1;stroke:none"
       sodipodi:type="arc"
       inkscape:transform-center-x="232.7508"
       inkscape:export-filename="/home/michal/Obrazy/tapety/ubu_phone/ubu_phone1440x900.png"
       inkscape:export-xdpi="90"
       inkscape:export-ydpi="90"
       inkscape:transform-center-y="3.382e-05" />
    <path
       inkscape:transform-center-y="-40.684472"
       transform="matrix(0.12401369,-0.70331651,0.70331651,0.12401368,-349.29618,1087.8914)"
       d="m 367.5,462.36218 a 3.5,3.5 0 1 1 -7,0 3.5,3.5 0 1 1 7,0 z"
       sodipodi:ry="3.5"
       sodipodi:rx="3.5"
       sodipodi:cy="462.36218"
       sodipodi:cx="364"
       id="path4003"
       style="opacity:0.5;fill:#eeeeee;fill-opacity:1;stroke:none"
       sodipodi:type="arc"
       inkscape:transform-center-x="229.17645"
       inkscape:export-filename="/home/michal/Obrazy/tapety/ubu_phone/ubu_phone1440x900.png"
       inkscape:export-xdpi="90"
       inkscape:export-ydpi="90" />
    <path
       inkscape:transform-center-y="-80.12431"
       transform="matrix(0.24423363,-0.6710264,0.67102639,0.24423363,-372.54956,999.87902)"
       d="m 367.5,462.36218 a 3.5,3.5 0 1 1 -7,0 3.5,3.5 0 1 1 7,0 z"
       sodipodi:ry="3.5"
       sodipodi:rx="3.5"
       sodipodi:cy="462.36218"
       sodipodi:cx="364"
       id="path4005"
       style="opacity:0.5;fill:#eeeeee;fill-opacity:1;stroke:none"
       sodipodi:type="arc"
       inkscape:transform-center-x="218.65471"
       inkscape:export-filename="/home/michal/Obrazy/tapety/ubu_phone/ubu_phone1440x900.png"
       inkscape:export-xdpi="90"
       inkscape:export-ydpi="90" />
    <path
       inkscape:transform-center-y="-117.14617"
       transform="matrix(0.35708325,-0.61848629,0.61848629,0.35708325,-380.22725,909.17895)"
       d="m 367.5,462.36218 a 3.5,3.5 0 1 1 -7,0 3.5,3.5 0 1 1 7,0 z"
       sodipodi:ry="3.5"
       sodipodi:rx="3.5"
       sodipodi:cy="462.36218"
       sodipodi:cx="364"
       id="path4007"
       style="opacity:0.5;fill:#eeeeee;fill-opacity:1;stroke:none"
       sodipodi:type="arc"
       inkscape:transform-center-x="201.53448"
       inkscape:export-filename="/home/michal/Obrazy/tapety/ubu_phone/ubu_phone1440x900.png"
       inkscape:export-xdpi="90"
       inkscape:export-ydpi="90" />
    <path
       inkscape:transform-center-y="-150.62187"
       transform="matrix(0.45912333,-0.54716185,0.54716185,0.45912333,-372.03209,818.50462)"
       d="m 367.5,462.36218 a 3.5,3.5 0 1 1 -7,0 3.5,3.5 0 1 1 7,0 z"
       sodipodi:ry="3.5"
       sodipodi:rx="3.5"
       sodipodi:cy="462.36218"
       sodipodi:cx="364"
       id="path4009"
       style="opacity:0.5;fill:#eeeeee;fill-opacity:1;stroke:none"
       sodipodi:type="arc"
       inkscape:transform-center-x="178.29331"
       inkscape:export-filename="/home/michal/Obrazy/tapety/ubu_phone/ubu_phone1440x900.png"
       inkscape:export-xdpi="90"
       inkscape:export-ydpi="90" />
    <path
       inkscape:transform-center-y="-179.50421"
       transform="matrix(0.54716185,-0.45912333,0.45912333,0.54716185,-348.13528,730.61853)"
       d="m 367.5,462.36218 a 3.5,3.5 0 1 1 -7,0 3.5,3.5 0 1 1 7,0 z"
       sodipodi:ry="3.5"
       sodipodi:rx="3.5"
       sodipodi:cy="462.36218"
       sodipodi:cx="364"
       id="path4011"
       style="opacity:0.5;fill:#eeeeee;fill-opacity:1;stroke:none"
       sodipodi:type="arc"
       inkscape:transform-center-x="149.60583"
       inkscape:export-filename="/home/michal/Obrazy/tapety/ubu_phone/ubu_phone1440x900.png"
       inkscape:export-xdpi="90"
       inkscape:export-ydpi="90" />
    <path
       style="opacity:0.5;fill:#eeeeee;fill-opacity:1;stroke:none"
       d="M 76.75 29.8125 C 76.7466 29.8232 76.54455 32.7219 76.53125 34.0625 C 76.471 35.1778 76.21645 36.5043 76.71875 37.875 C 77.67911 40.4958 80.64205 41.27655 83.15625 40.03125 C 85.14592 39.04575 86.15404 36.2064 84.71875 33.8125 C 84.07089 32.732 82.79036 31.98805 81.3125 31.46875 C 80.25813 31.19435 76.7706 29.7475 76.75 29.8125 z M 80.78125 34.8125 C 81.361254 34.74053 81.939392 35.024511 82.25 35.5625 C 82.664144 36.279819 82.436069 37.179606 81.71875 37.59375 C 81.001431 38.007894 80.070394 37.779819 79.65625 37.0625 C 79.242106 36.345181 79.501431 35.414144 80.21875 35 C 80.39808 34.896464 80.587915 34.83649 80.78125 34.8125 z "
       transform="translate(0,767.90218)"
       id="path3217" />
    <path
       id="path3385"
       d="m 100.505,792.67317 c -1.38071,0 -2.5,1.11929 -2.5,2.5 0,1.38072 1.11929,2.5 2.5,2.5 1.38071,0 2.5,-1.11928 2.5,-2.5 0,-1.38071 -1.11929,-2.5 -2.5,-2.5 z m 0,1 c 0.82843,0 1.5,0.67158 1.5,1.5 0,0.82843 -0.67157,1.5 -1.5,1.5 -0.82843,0 -1.5,-0.67157 -1.5,-1.5 0,-0.82842 0.67157,-1.5 1.5,-1.5 z"
       style="opacity:0.5;fill:#eeeeee;fill-opacity:1;stroke:none"
       inkscape:connector-curvature="0" />
    <path
       style="opacity:0.5;fill:#eeeeee;fill-opacity:1;stroke:none"
       d="M 121.3125 19.21875 C 119.93179 19.21875 118.8125 20.338038 118.8125 21.71875 C 118.8125 23.099462 119.93179 24.21875 121.3125 24.21875 C 122.69321 24.21875 123.8125 23.099462 123.8125 21.71875 C 123.8125 20.338038 122.69321 19.21875 121.3125 19.21875 z M 121.3125 20.21875 C 122.14093 20.21875 122.8125 20.890323 122.8125 21.71875 C 122.8125 22.547177 122.14093 23.21875 121.3125 23.21875 C 120.48407 23.21875 119.8125 22.547177 119.8125 21.71875 C 119.8125 20.890323 120.48407 20.21875 121.3125 20.21875 z "
       transform="translate(0,767.90218)"
       id="path3316" />
    <path
       sodipodi:type="arc"
       style="opacity:0.5;fill:#eeeeee;fill-opacity:1;stroke:none"
       id="path4023"
       sodipodi:cx="364"
       sodipodi:cy="462.36218"
       sodipodi:rx="3.5"
       sodipodi:ry="3.5"
       d="m 367.5,462.36218 a 3.5,3.5 0 1 1 -7,0 3.5,3.5 0 1 1 7,0 z"
       transform="matrix(-0.35708325,0.61848629,-0.61848629,-0.35708325,665.77648,911.91156)"
       inkscape:transform-center-y="117.14616"
       inkscape:transform-center-x="-201.53442"
       inkscape:export-filename="/home/michal/Obrazy/tapety/ubu_phone/ubu_phone1440x900.png"
       inkscape:export-xdpi="90"
       inkscape:export-ydpi="90" />
    <path
       inkscape:transform-center-y="234.33148"
       transform="matrix(-0.71428571,0,0,-0.71428571,402.77493,1363.5907)"
       d="m 367.5,462.36218 a 3.5,3.5 0 1 1 -7,0 3.5,3.5 0 1 1 7,0 z"
       sodipodi:ry="3.5"
       sodipodi:rx="3.5"
       sodipodi:cy="462.36218"
       sodipodi:cx="364"
       id="path4015"
       style="opacity:0.5;fill:#eeeeee;fill-opacity:1;stroke:none"
       sodipodi:type="arc"
       inkscape:transform-center-x="5.4089267e-05"
       inkscape:export-filename="/home/michal/Obrazy/tapety/ubu_phone/ubu_phone1440x900.png"
       inkscape:export-xdpi="90"
       inkscape:export-ydpi="90" />
    <path
       sodipodi:type="arc"
       style="opacity:0.5;fill:#eeeeee;fill-opacity:1;stroke:none"
       id="path3890"
       sodipodi:cx="364"
       sodipodi:cy="462.36218"
       sodipodi:rx="3.5"
       sodipodi:ry="3.5"
       d="m 367.5,462.36218 a 3.5,3.5 0 1 1 -7,0 3.5,3.5 0 1 1 7,0 z"
       transform="matrix(0.71428571,0,0,0.71428571,-117.22504,457.49916)"
       inkscape:transform-center-y="-234.3315"
       inkscape:export-filename="/home/michal/Obrazy/tapety/ubu_phone/ubu_phone1440x900.png"
       inkscape:export-xdpi="90"
       inkscape:export-ydpi="90" />
  </g>
</svg>
