<?xml version="1.0" encoding="UTF-8" standalone="no"?>
<!-- Created with Inkscape (http://www.inkscape.org/) -->

<svg
   xmlns:dc="http://purl.org/dc/elements/1.1/"
   xmlns:cc="http://creativecommons.org/ns#"
   xmlns:rdf="http://www.w3.org/1999/02/22-rdf-syntax-ns#"
   xmlns:svg="http://www.w3.org/2000/svg"
   xmlns="http://www.w3.org/2000/svg"
   xmlns:xlink="http://www.w3.org/1999/xlink"
   xmlns:sodipodi="http://sodipodi.sourceforge.net/DTD/sodipodi-0.dtd"
   xmlns:inkscape="http://www.inkscape.org/namespaces/inkscape"
   width="442"
   height="442"
   id="svg2"
   version="1.1"
   inkscape:version="0.48.3.1 r9886"
   inkscape:export-filename="/home/gabriel/Documentos/data/media/1.png"
   inkscape:export-xdpi="90"
   inkscape:export-ydpi="90"
   sodipodi:docname="1.svg">
  <defs
     id="defs4">
    <filter
       color-interpolation-filters="sRGB"
       id="filter3886"
       inkscape:collect="always">
      <feGaussianBlur
         id="feGaussianBlur3888"
         stdDeviation="1.0154687"
         inkscape:collect="always" />
    </filter>
    <filter
       x="-0.1"
       y="-0.1"
       color-interpolation-filters="sRGB"
       inkscape:menu-tooltip="Adds a colorizable drop shadow inside"
       inkscape:menu="Shadows and Glows"
       inkscape:label="Inner Shadow"
       id="filter3048">
      <feGaussianBlur
         result="result8"
         stdDeviation="4"
         id="feGaussianBlur3050" />
      <feOffset
         result="result11"
         dy="4"
         dx="4"
         id="feOffset3052" />
      <feComposite
         operator="in"
         in="SourceGraphic"
         result="result6"
         in2="result11"
         id="feComposite3054" />
      <feFlood
         flood-color="rgb(0,0,0)"
         flood-opacity="1"
         in="result6"
         result="result10"
         id="feFlood3056" />
      <feBlend
         result="result12"
         in="result6"
         mode="normal"
         in2="result10"
         id="feBlend3058" />
      <feComposite
         operator="in"
         result="result2"
         in2="SourceGraphic"
         id="feComposite3060" />
    </filter>
    <linearGradient
       id="Circles">
      <stop
         id="stop3825"
         offset="0"
         style="stop-color:#ffffff;stop-opacity:1;" />
    </linearGradient>
    <linearGradient
       id="Background">
      <stop
         id="stop3945"
         offset="0"
         style="stop-color:#000000;stop-opacity:1;" />
    </linearGradient>
    <linearGradient
       inkscape:collect="always"
       xlink:href="#Circles"
       id="linearGradient4149"
       gradientUnits="userSpaceOnUse"
       x1="332"
       y1="441.86218"
       x2="375"
       y2="441.86218" />
    <linearGradient
       inkscape:collect="always"
       xlink:href="#Circles"
       id="linearGradient4151"
       gradientUnits="userSpaceOnUse"
       x1="332"
       y1="441.86218"
       x2="375"
       y2="441.86218" />
    <linearGradient
       inkscape:collect="always"
       xlink:href="#Circles"
       id="linearGradient4153"
       gradientUnits="userSpaceOnUse"
       x1="332"
       y1="441.86218"
       x2="375"
       y2="441.86218" />
    <linearGradient
       inkscape:collect="always"
       xlink:href="#Circles"
       id="linearGradient4155"
       gradientUnits="userSpaceOnUse"
       x1="332"
       y1="441.86218"
       x2="375"
       y2="441.86218" />
    <linearGradient
       inkscape:collect="always"
       xlink:href="#Circles"
       id="linearGradient4157"
       gradientUnits="userSpaceOnUse"
       x1="332"
       y1="441.86218"
       x2="375"
       y2="441.86218" />
    <linearGradient
       inkscape:collect="always"
       xlink:href="#Circles"
       id="linearGradient4159"
       gradientUnits="userSpaceOnUse"
       x1="332"
       y1="441.86218"
       x2="375"
       y2="441.86218" />
    <linearGradient
       inkscape:collect="always"
       xlink:href="#Circles"
       id="linearGradient4161"
       gradientUnits="userSpaceOnUse"
       x1="332"
       y1="441.86218"
       x2="375"
       y2="441.86218" />
    <linearGradient
       inkscape:collect="always"
       xlink:href="#Circles"
       id="linearGradient4163"
       gradientUnits="userSpaceOnUse"
       x1="332"
       y1="441.86218"
       x2="375"
       y2="441.86218" />
    <linearGradient
       inkscape:collect="always"
       xlink:href="#Circles"
       id="linearGradient4165"
       gradientUnits="userSpaceOnUse"
       x1="332"
       y1="441.86218"
       x2="375"
       y2="441.86218" />
    <linearGradient
       inkscape:collect="always"
       xlink:href="#Circles"
       id="linearGradient4167"
       gradientUnits="userSpaceOnUse"
       x1="332"
       y1="441.86218"
       x2="375"
       y2="441.86218" />
    <linearGradient
       inkscape:collect="always"
       xlink:href="#Circles"
       id="linearGradient4169"
       gradientUnits="userSpaceOnUse"
       x1="332"
       y1="441.86218"
       x2="375"
       y2="441.86218" />
    <linearGradient
       inkscape:collect="always"
       xlink:href="#Circles"
       id="linearGradient4171"
       gradientUnits="userSpaceOnUse"
       x1="332"
       y1="441.86218"
       x2="375"
       y2="441.86218" />
    <linearGradient
       inkscape:collect="always"
       xlink:href="#Circles"
       id="linearGradient4173"
       gradientUnits="userSpaceOnUse"
       x1="332"
       y1="441.86218"
       x2="375"
       y2="441.86218" />
    <linearGradient
       inkscape:collect="always"
       xlink:href="#Circles"
       id="linearGradient4175"
       gradientUnits="userSpaceOnUse"
       x1="332"
       y1="441.86218"
       x2="375"
       y2="441.86218" />
    <linearGradient
       inkscape:collect="always"
       xlink:href="#Circles"
       id="linearGradient4177"
       gradientUnits="userSpaceOnUse"
       x1="332"
       y1="441.86218"
       x2="375"
       y2="441.86218" />
    <linearGradient
       inkscape:collect="always"
       xlink:href="#Circles"
       id="linearGradient4179"
       gradientUnits="userSpaceOnUse"
       x1="332"
       y1="441.86218"
       x2="375"
       y2="441.86218" />
    <linearGradient
       inkscape:collect="always"
       xlink:href="#Circles"
       id="linearGradient4181"
       gradientUnits="userSpaceOnUse"
       x1="332"
       y1="441.86218"
       x2="375"
       y2="441.86218" />
    <linearGradient
       inkscape:collect="always"
       xlink:href="#Background"
       id="linearGradient4183"
       gradientUnits="userSpaceOnUse"
       x1="355"
       y1="512.61218"
       x2="490.5"
       y2="512.61218" />
    <linearGradient
       inkscape:collect="always"
       xlink:href="#Circles"
       id="linearGradient5369"
       gradientUnits="userSpaceOnUse"
       x1="332"
       y1="441.86218"
       x2="375"
       y2="441.86218" />
    <linearGradient
       inkscape:collect="always"
       xlink:href="#Circles"
       id="linearGradient5371"
       gradientUnits="userSpaceOnUse"
       x1="332"
       y1="441.86218"
       x2="375"
       y2="441.86218" />
    <linearGradient
       inkscape:collect="always"
       xlink:href="#Circles"
       id="linearGradient5373"
       gradientUnits="userSpaceOnUse"
       x1="332"
       y1="441.86218"
       x2="375"
       y2="441.86218" />
    <linearGradient
       inkscape:collect="always"
       xlink:href="#Circles"
       id="linearGradient5375"
       gradientUnits="userSpaceOnUse"
       x1="332"
       y1="441.86218"
       x2="375"
       y2="441.86218" />
    <linearGradient
       inkscape:collect="always"
       xlink:href="#Circles"
       id="linearGradient5377"
       gradientUnits="userSpaceOnUse"
       x1="332"
       y1="441.86218"
       x2="375"
       y2="441.86218" />
    <linearGradient
       inkscape:collect="always"
       xlink:href="#Circles"
       id="linearGradient5379"
       gradientUnits="userSpaceOnUse"
       x1="332"
       y1="441.86218"
       x2="375"
       y2="441.86218" />
    <linearGradient
       inkscape:collect="always"
       xlink:href="#Circles"
       id="linearGradient5381"
       gradientUnits="userSpaceOnUse"
       x1="332"
       y1="441.86218"
       x2="375"
       y2="441.86218" />
    <linearGradient
       inkscape:collect="always"
       xlink:href="#Circles"
       id="linearGradient5383"
       gradientUnits="userSpaceOnUse"
       x1="332"
       y1="441.86218"
       x2="375"
       y2="441.86218" />
    <linearGradient
       inkscape:collect="always"
       xlink:href="#Circles"
       id="linearGradient5385"
       gradientUnits="userSpaceOnUse"
       x1="332"
       y1="441.86218"
       x2="375"
       y2="441.86218" />
    <linearGradient
       inkscape:collect="always"
       xlink:href="#Circles"
       id="linearGradient5387"
       gradientUnits="userSpaceOnUse"
       x1="332"
       y1="441.86218"
       x2="375"
       y2="441.86218" />
    <linearGradient
       inkscape:collect="always"
       xlink:href="#Circles"
       id="linearGradient5389"
       gradientUnits="userSpaceOnUse"
       x1="332"
       y1="441.86218"
       x2="375"
       y2="441.86218" />
    <linearGradient
       inkscape:collect="always"
       xlink:href="#Circles"
       id="linearGradient5391"
       gradientUnits="userSpaceOnUse"
       x1="332"
       y1="441.86218"
       x2="375"
       y2="441.86218" />
    <linearGradient
       inkscape:collect="always"
       xlink:href="#Circles"
       id="linearGradient5393"
       gradientUnits="userSpaceOnUse"
       x1="332"
       y1="441.86218"
       x2="375"
       y2="441.86218" />
    <linearGradient
       inkscape:collect="always"
       xlink:href="#Circles"
       id="linearGradient5395"
       gradientUnits="userSpaceOnUse"
       x1="332"
       y1="441.86218"
       x2="375"
       y2="441.86218" />
    <linearGradient
       inkscape:collect="always"
       xlink:href="#Circles"
       id="linearGradient5397"
       gradientUnits="userSpaceOnUse"
       x1="332"
       y1="441.86218"
       x2="375"
       y2="441.86218" />
    <linearGradient
       inkscape:collect="always"
       xlink:href="#Circles"
       id="linearGradient5399"
       gradientUnits="userSpaceOnUse"
       x1="332"
       y1="441.86218"
       x2="375"
       y2="441.86218" />
    <linearGradient
       inkscape:collect="always"
       xlink:href="#Circles"
       id="linearGradient5401"
       gradientUnits="userSpaceOnUse"
       x1="332"
       y1="441.86218"
       x2="375"
       y2="441.86218" />
    <linearGradient
       inkscape:collect="always"
       xlink:href="#Circles"
       id="linearGradient5403"
       gradientUnits="userSpaceOnUse"
       x1="332"
       y1="441.86218"
       x2="375"
       y2="441.86218" />
    <linearGradient
       inkscape:collect="always"
       xlink:href="#Circles"
       id="linearGradient5405"
       gradientUnits="userSpaceOnUse"
       x1="332"
       y1="441.86218"
       x2="375"
       y2="441.86218" />
    <linearGradient
       inkscape:collect="always"
       xlink:href="#Circles"
       id="linearGradient5407"
       gradientUnits="userSpaceOnUse"
       x1="332"
       y1="441.86218"
       x2="375"
       y2="441.86218" />
    <linearGradient
       inkscape:collect="always"
       xlink:href="#Circles"
       id="linearGradient5409"
       gradientUnits="userSpaceOnUse"
       x1="332"
       y1="441.86218"
       x2="375"
       y2="441.86218" />
    <linearGradient
       inkscape:collect="always"
       xlink:href="#Circles"
       id="linearGradient5411"
       gradientUnits="userSpaceOnUse"
       x1="332"
       y1="441.86218"
       x2="375"
       y2="441.86218" />
    <linearGradient
       inkscape:collect="always"
       xlink:href="#Circles"
       id="linearGradient5413"
       gradientUnits="userSpaceOnUse"
       x1="332"
       y1="441.86218"
       x2="375"
       y2="441.86218" />
    <linearGradient
       inkscape:collect="always"
       xlink:href="#Circles"
       id="linearGradient5415"
       gradientUnits="userSpaceOnUse"
       x1="332"
       y1="441.86218"
       x2="375"
       y2="441.86218" />
    <linearGradient
       inkscape:collect="always"
       xlink:href="#Circles"
       id="linearGradient5417"
       gradientUnits="userSpaceOnUse"
       x1="332"
       y1="441.86218"
       x2="375"
       y2="441.86218" />
    <linearGradient
       inkscape:collect="always"
       xlink:href="#Circles"
       id="linearGradient5419"
       gradientUnits="userSpaceOnUse"
       x1="332"
       y1="441.86218"
       x2="375"
       y2="441.86218" />
    <linearGradient
       inkscape:collect="always"
       xlink:href="#Circles"
       id="linearGradient5421"
       gradientUnits="userSpaceOnUse"
       x1="332"
       y1="441.86218"
       x2="375"
       y2="441.86218" />
    <linearGradient
       inkscape:collect="always"
       xlink:href="#Circles"
       id="linearGradient5423"
       gradientUnits="userSpaceOnUse"
       x1="332"
       y1="441.86218"
       x2="375"
       y2="441.86218" />
    <linearGradient
       inkscape:collect="always"
       xlink:href="#Circles"
       id="linearGradient5425"
       gradientUnits="userSpaceOnUse"
       x1="332"
       y1="441.86218"
       x2="375"
       y2="441.86218" />
    <linearGradient
       inkscape:collect="always"
       xlink:href="#Circles"
       id="linearGradient5427"
       gradientUnits="userSpaceOnUse"
       x1="332"
       y1="441.86218"
       x2="375"
       y2="441.86218" />
    <linearGradient
       inkscape:collect="always"
       xlink:href="#Circles"
       id="linearGradient5429"
       gradientUnits="userSpaceOnUse"
       x1="332"
       y1="441.86218"
       x2="375"
       y2="441.86218" />
    <linearGradient
       inkscape:collect="always"
       xlink:href="#Circles"
       id="linearGradient5431"
       gradientUnits="userSpaceOnUse"
       x1="332"
       y1="441.86218"
       x2="375"
       y2="441.86218" />
    <linearGradient
       inkscape:collect="always"
       xlink:href="#Circles"
       id="linearGradient5433"
       gradientUnits="userSpaceOnUse"
       x1="332"
       y1="441.86218"
       x2="375"
       y2="441.86218" />
  </defs>
  <sodipodi:namedview
     id="base"
     pagecolor="#ffffff"
     bordercolor="#666666"
     borderopacity="1.0"
     inkscape:pageopacity="0.0"
     inkscape:pageshadow="2"
     inkscape:zoom="0.24748737"
     inkscape:cx="-180.74973"
     inkscape:cy="756.54675"
     inkscape:document-units="px"
     inkscape:current-layer="layer1"
     showgrid="false"
     inkscape:window-width="1280"
     inkscape:window-height="973"
     inkscape:window-x="0"
     inkscape:window-y="28"
     inkscape:window-maximized="1"
     showguides="true"
     inkscape:guide-bbox="true" />
  <metadata
     id="metadata7">
    <rdf:RDF>
      <cc:Work
         rdf:about="">
        <dc:format>image/svg+xml</dc:format>
        <dc:type
           rdf:resource="http://purl.org/dc/dcmitype/StillImage" />
      </cc:Work>
    </rdf:RDF>
  </metadata>
  <g
     inkscape:label="Camada 1"
     inkscape:groupmode="layer"
     id="layer1"
     transform="translate(0,-610.36215)"
     style="display:inline">
    <path
       inkscape:export-ydpi="90"
       inkscape:export-xdpi="90"
       inkscape:export-filename="/home/michal/Obrazy/tapety/ubu_phone/ubu_phone1440x900.png"
       sodipodi:type="arc"
       style="opacity:0.25;fill:url(#linearGradient5369);fill-opacity:1;stroke:none"
       id="path4732"
       sodipodi:cx="353.5"
       sodipodi:cy="441.86218"
       sodipodi:rx="21.5"
       sodipodi:ry="21.5"
       d="m 375,441.86218 c 0,11.87412 -9.62588,21.5 -21.5,21.5 -11.87412,0 -21.5,-9.62588 -21.5,-21.5 0,-11.87412 9.62588,-21.5 21.5,-21.5 11.87412,0 21.5,9.62588 21.5,21.5 z"
       transform="matrix(-2.2240045,1.7742474,-1.7742474,-2.2240045,1897.6367,1236.5799)" />
    <path
       inkscape:export-ydpi="90"
       inkscape:export-xdpi="90"
       inkscape:export-filename="/home/michal/Obrazy/tapety/ubu_phone/ubu_phone1440x900.png"
       sodipodi:type="arc"
       style="opacity:0.11666667;fill:url(#linearGradient5371);fill-opacity:1;stroke:none"
       id="path4724"
       sodipodi:cx="353.5"
       sodipodi:cy="441.86218"
       sodipodi:rx="21.5"
       sodipodi:ry="21.5"
       d="m 375,441.86218 c 0,11.87412 -9.62588,21.5 -21.5,21.5 -11.87412,0 -21.5,-9.62588 -21.5,-21.5 0,-11.87412 9.62588,-21.5 21.5,-21.5 11.87412,0 21.5,9.62588 21.5,21.5 z"
       transform="matrix(-2.8800368,-2.9415167,2.9415167,-2.8800368,-98.891621,3283.3502)" />
    <path
       transform="matrix(-2.8800368,-2.9415167,2.9415167,-2.8800368,-30.201248,3295.472)"
       d="m 375,441.86218 c 0,11.87412 -9.62588,21.5 -21.5,21.5 -11.87412,0 -21.5,-9.62588 -21.5,-21.5 0,-11.87412 9.62588,-21.5 21.5,-21.5 11.87412,0 21.5,9.62588 21.5,21.5 z"
       sodipodi:ry="21.5"
       sodipodi:rx="21.5"
       sodipodi:cy="441.86218"
       sodipodi:cx="353.5"
       id="path3804"
       style="opacity:0.11666667;fill:url(#linearGradient5373);fill-opacity:1;stroke:none"
       sodipodi:type="arc"
       inkscape:export-filename="/home/michal/Obrazy/tapety/ubu_phone/ubu_phone1440x900.png"
       inkscape:export-xdpi="90"
       inkscape:export-ydpi="90" />
    <path
       transform="matrix(1.2530973,0.16980172,-0.16980172,1.2530973,-292.7145,219.05168)"
       d="m 375,441.86218 c 0,11.87412 -9.62588,21.5 -21.5,21.5 -11.87412,0 -21.5,-9.62588 -21.5,-21.5 0,-11.87412 9.62588,-21.5 21.5,-21.5 11.87412,0 21.5,9.62588 21.5,21.5 z"
       sodipodi:ry="21.5"
       sodipodi:rx="21.5"
       sodipodi:cy="441.86218"
       sodipodi:cx="353.5"
       id="path3790"
       style="opacity:0.33000004;fill:url(#linearGradient5375);fill-opacity:1;stroke:none"
       sodipodi:type="arc"
       inkscape:export-filename="/home/michal/Obrazy/tapety/ubu_phone/ubu_phone1440x900.png"
       inkscape:export-xdpi="90"
       inkscape:export-ydpi="90" />
    <path
       transform="matrix(1.2567356,1.8273894,-1.8273894,1.2567356,556.22333,-496.69162)"
       d="m 375,441.86218 c 0,11.87412 -9.62588,21.5 -21.5,21.5 -11.87412,0 -21.5,-9.62588 -21.5,-21.5 0,-11.87412 9.62588,-21.5 21.5,-21.5 11.87412,0 21.5,9.62588 21.5,21.5 z"
       sodipodi:ry="21.5"
       sodipodi:rx="21.5"
       sodipodi:cy="441.86218"
       sodipodi:cx="353.5"
       id="path3794"
       style="opacity:0.13168724;fill:url(#linearGradient5377);fill-opacity:1;stroke:none"
       sodipodi:type="arc"
       inkscape:export-filename="/home/michal/Obrazy/tapety/ubu_phone/ubu_phone1440x900.png"
       inkscape:export-xdpi="90"
       inkscape:export-ydpi="90" />
    <path
       inkscape:export-ydpi="90"
       inkscape:export-xdpi="90"
       inkscape:export-filename="/home/michal/Obrazy/tapety/ubu_phone/ubu_phone1440x900.png"
       sodipodi:type="arc"
       style="opacity:0.32510286;fill:url(#linearGradient5379);fill-opacity:1;stroke:none"
       id="path4692"
       sodipodi:cx="353.5"
       sodipodi:cy="441.86218"
       sodipodi:rx="21.5"
       sodipodi:ry="21.5"
       d="m 375,441.86218 c 0,11.87412 -9.62588,21.5 -21.5,21.5 -11.87412,0 -21.5,-9.62588 -21.5,-21.5 0,-11.87412 9.62588,-21.5 21.5,-21.5 11.87412,0 21.5,9.62588 21.5,21.5 z"
       transform="matrix(0.46468484,-0.61118671,0.61118671,0.46468484,-293.73766,729.52809)" />
    <path
       transform="matrix(-2.2240045,1.7742474,-1.7742474,-2.2240045,1881.4743,1099.1991)"
       d="m 375,441.86218 c 0,11.87412 -9.62588,21.5 -21.5,21.5 -11.87412,0 -21.5,-9.62588 -21.5,-21.5 0,-11.87412 9.62588,-21.5 21.5,-21.5 11.87412,0 21.5,9.62588 21.5,21.5 z"
       sodipodi:ry="21.5"
       sodipodi:rx="21.5"
       sodipodi:cy="441.86218"
       sodipodi:cx="353.5"
       id="path3798"
       style="opacity:0.33000004;fill:url(#linearGradient5381);fill-opacity:1;stroke:none"
       sodipodi:type="arc"
       inkscape:export-filename="/home/michal/Obrazy/tapety/ubu_phone/ubu_phone1440x900.png"
       inkscape:export-xdpi="90"
       inkscape:export-ydpi="90" />
    <path
       transform="matrix(0.46468484,-0.61118671,0.61118671,0.46468484,-221.00668,715.38599)"
       d="m 375,441.86218 c 0,11.87412 -9.62588,21.5 -21.5,21.5 -11.87412,0 -21.5,-9.62588 -21.5,-21.5 0,-11.87412 9.62588,-21.5 21.5,-21.5 11.87412,0 21.5,9.62588 21.5,21.5 z"
       sodipodi:ry="21.5"
       sodipodi:rx="21.5"
       sodipodi:cy="441.86218"
       sodipodi:cx="353.5"
       id="path4696"
       style="opacity:0.32510286;fill:url(#linearGradient5383);fill-opacity:1;stroke:none"
       sodipodi:type="arc"
       inkscape:export-filename="/home/michal/Obrazy/tapety/ubu_phone/ubu_phone1440x900.png"
       inkscape:export-xdpi="90"
       inkscape:export-ydpi="90" />
    <path
       transform="matrix(-1.4431386,-0.07565362,0.07565362,-1.4431386,836.69476,1494.7141)"
       d="m 375,441.86218 c 0,11.87412 -9.62588,21.5 -21.5,21.5 -11.87412,0 -21.5,-9.62588 -21.5,-21.5 0,-11.87412 9.62588,-21.5 21.5,-21.5 11.87412,0 21.5,9.62588 21.5,21.5 z"
       sodipodi:ry="21.5"
       sodipodi:rx="21.5"
       sodipodi:cy="441.86218"
       sodipodi:cx="353.5"
       id="path3800"
       style="opacity:0.23456792;fill:url(#linearGradient5385);fill-opacity:1;stroke:none"
       sodipodi:type="arc"
       inkscape:export-filename="/home/michal/Obrazy/tapety/ubu_phone/ubu_phone1440x900.png"
       inkscape:export-xdpi="90"
       inkscape:export-ydpi="90" />
    <path
       inkscape:export-ydpi="90"
       inkscape:export-xdpi="90"
       inkscape:export-filename="/home/michal/Obrazy/tapety/ubu_phone/ubu_phone1440x900.png"
       sodipodi:type="arc"
       style="opacity:0.32510286;fill:url(#linearGradient5387);fill-opacity:1;stroke:none"
       id="path4708"
       sodipodi:cx="353.5"
       sodipodi:cy="441.86218"
       sodipodi:rx="21.5"
       sodipodi:ry="21.5"
       d="m 375,441.86218 c 0,11.87412 -9.62588,21.5 -21.5,21.5 -11.87412,0 -21.5,-9.62588 -21.5,-21.5 0,-11.87412 9.62588,-21.5 21.5,-21.5 11.87412,0 21.5,9.62588 21.5,21.5 z"
       transform="matrix(0.46468484,-0.61118671,0.61118671,0.46468484,-312.93056,948.73119)" />
    <path
       transform="matrix(1.2530973,0.16980172,-0.16980172,1.2530973,-10.881937,257.43748)"
       d="m 375,441.86218 c 0,11.87412 -9.62588,21.5 -21.5,21.5 -11.87412,0 -21.5,-9.62588 -21.5,-21.5 0,-11.87412 9.62588,-21.5 21.5,-21.5 11.87412,0 21.5,9.62588 21.5,21.5 z"
       sodipodi:ry="21.5"
       sodipodi:rx="21.5"
       sodipodi:cy="441.86218"
       sodipodi:cx="353.5"
       id="path4728"
       style="opacity:0.33000004;fill:url(#linearGradient5389);fill-opacity:1;stroke:none"
       sodipodi:type="arc"
       inkscape:export-filename="/home/michal/Obrazy/tapety/ubu_phone/ubu_phone1440x900.png"
       inkscape:export-xdpi="90"
       inkscape:export-ydpi="90" />
    <path
       transform="matrix(-0.73502065,-0.47933367,0.47933367,-0.73502065,392.36162,1396.878)"
       d="m 375,441.86218 c 0,11.87412 -9.62588,21.5 -21.5,21.5 -11.87412,0 -21.5,-9.62588 -21.5,-21.5 0,-11.87412 9.62588,-21.5 21.5,-21.5 11.87412,0 21.5,9.62588 21.5,21.5 z"
       sodipodi:ry="21.5"
       sodipodi:rx="21.5"
       sodipodi:cy="441.86218"
       sodipodi:cx="353.5"
       id="path3802"
       style="opacity:0.19753089;fill:url(#linearGradient5391);fill-opacity:1;stroke:none"
       sodipodi:type="arc"
       inkscape:export-filename="/home/michal/Obrazy/tapety/ubu_phone/ubu_phone1440x900.png"
       inkscape:export-xdpi="90"
       inkscape:export-ydpi="90" />
    <path
       sodipodi:type="arc"
       style="opacity:0.23456792;fill:url(#linearGradient5393);fill-opacity:1;stroke:none"
       id="path3814"
       sodipodi:cx="353.5"
       sodipodi:cy="441.86218"
       sodipodi:rx="21.5"
       sodipodi:ry="21.5"
       d="m 375,441.86218 c 0,11.87412 -9.62588,21.5 -21.5,21.5 -11.87412,0 -21.5,-9.62588 -21.5,-21.5 0,-11.87412 9.62588,-21.5 21.5,-21.5 11.87412,0 21.5,9.62588 21.5,21.5 z"
       transform="matrix(0.7454246,-1.7930914,1.7930914,0.7454246,-879.14668,1278.3599)"
       inkscape:transform-center-x="210.13494"
       inkscape:transform-center-y="21.55228"
       inkscape:export-filename="/home/michal/Obrazy/tapety/ubu_phone/ubu_phone1440x900.png"
       inkscape:export-xdpi="90"
       inkscape:export-ydpi="90" />
    <path
       transform="matrix(0.64951038,-0.85428247,0.85428247,0.64951038,-468.00354,974.71639)"
       d="m 375,441.86218 c 0,11.87412 -9.62588,21.5 -21.5,21.5 -11.87412,0 -21.5,-9.62588 -21.5,-21.5 0,-11.87412 9.62588,-21.5 21.5,-21.5 11.87412,0 21.5,9.62588 21.5,21.5 z"
       sodipodi:ry="21.5"
       sodipodi:rx="21.5"
       sodipodi:cy="441.86218"
       sodipodi:cx="353.5"
       id="path4712"
       style="opacity:0.32510286;fill:url(#linearGradient5395);fill-opacity:1;stroke:none"
       sodipodi:type="arc"
       inkscape:export-filename="/home/michal/Obrazy/tapety/ubu_phone/ubu_phone1440x900.png"
       inkscape:export-xdpi="90"
       inkscape:export-ydpi="90" />
    <path
       sodipodi:type="arc"
       style="opacity:0.13991771;fill:url(#linearGradient5397);fill-opacity:1;stroke:none"
       id="path3818"
       sodipodi:cx="353.5"
       sodipodi:cy="441.86218"
       sodipodi:rx="21.5"
       sodipodi:ry="21.5"
       d="m 375,441.86218 c 0,11.87412 -9.62588,21.5 -21.5,21.5 -11.87412,0 -21.5,-9.62588 -21.5,-21.5 0,-11.87412 9.62588,-21.5 21.5,-21.5 11.87412,0 21.5,9.62588 21.5,21.5 z"
       transform="matrix(-1.9197864,0.29198365,-0.29198365,-1.9197864,1163.2702,1546.7765)"
       inkscape:transform-center-x="210.13488"
       inkscape:transform-center-y="21.552355"
       inkscape:export-filename="/home/michal/Obrazy/tapety/ubu_phone/ubu_phone1440x900.png"
       inkscape:export-xdpi="90"
       inkscape:export-ydpi="90" />
    <path
       sodipodi:type="arc"
       style="opacity:0.18518521;fill:url(#linearGradient5399);fill-opacity:1;stroke:none"
       id="path3820"
       sodipodi:cx="353.5"
       sodipodi:cy="441.86218"
       sodipodi:rx="21.5"
       sodipodi:ry="21.5"
       d="m 375,441.86218 c 0,11.87412 -9.62588,21.5 -21.5,21.5 -11.87412,0 -21.5,-9.62588 -21.5,-21.5 0,-11.87412 9.62588,-21.5 21.5,-21.5 11.87412,0 21.5,9.62588 21.5,21.5 z"
       transform="matrix(-0.39186077,1.6131121,-1.6131121,-0.39186077,1086.261,302.16209)"
       inkscape:transform-center-x="179.63646"
       inkscape:transform-center-y="18.424243"
       inkscape:export-filename="/home/michal/Obrazy/tapety/ubu_phone/ubu_phone1440x900.png"
       inkscape:export-xdpi="90"
       inkscape:export-ydpi="90" />
    <path
       inkscape:export-ydpi="90"
       inkscape:export-xdpi="90"
       inkscape:export-filename="/home/michal/Obrazy/tapety/ubu_phone/ubu_phone1440x900.png"
       sodipodi:type="arc"
       style="opacity:0.32510286;fill:url(#linearGradient5401);fill-opacity:1;stroke:none"
       id="path4716"
       sodipodi:cx="353.5"
       sodipodi:cy="441.86218"
       sodipodi:rx="21.5"
       sodipodi:ry="21.5"
       d="m 375,441.86218 c 0,11.87412 -9.62588,21.5 -21.5,21.5 -11.87412,0 -21.5,-9.62588 -21.5,-21.5 0,-11.87412 9.62588,-21.5 21.5,-21.5 11.87412,0 21.5,9.62588 21.5,21.5 z"
       transform="matrix(0.83433592,-1.0973782,1.0973782,0.83433592,-495.7973,976.45799)" />
    <path
       inkscape:export-ydpi="90"
       inkscape:export-xdpi="90"
       inkscape:export-filename="/home/michal/Obrazy/tapety/ubu_phone/ubu_phone1440x900.png"
       sodipodi:type="arc"
       style="opacity:0.33000004;fill:url(#linearGradient5403);fill-opacity:1;stroke:none"
       id="path4664"
       sodipodi:cx="353.5"
       sodipodi:cy="441.86218"
       sodipodi:rx="21.5"
       sodipodi:ry="21.5"
       d="m 375,441.86218 c 0,11.87412 -9.62588,21.5 -21.5,21.5 -11.87412,0 -21.5,-9.62588 -21.5,-21.5 0,-11.87412 9.62588,-21.5 21.5,-21.5 11.87412,0 21.5,9.62588 21.5,21.5 z"
       transform="matrix(1.2530973,0.16980172,-0.16980172,1.2530973,-257.35916,129.1481)" />
    <path
       sodipodi:type="arc"
       style="opacity:0.30864198;fill:url(#linearGradient5405);fill-opacity:1;stroke:none"
       id="path3822"
       sodipodi:cx="353.5"
       sodipodi:cy="441.86218"
       sodipodi:rx="21.5"
       sodipodi:ry="21.5"
       d="m 375,441.86218 c 0,11.87412 -9.62588,21.5 -21.5,21.5 -11.87412,0 -21.5,-9.62588 -21.5,-21.5 0,-11.87412 9.62588,-21.5 21.5,-21.5 11.87412,0 21.5,9.62588 21.5,21.5 z"
       transform="matrix(1.8043781,0.71767276,-0.71767276,1.8043781,-240.17721,-252.46394)"
       inkscape:transform-center-x="210.13497"
       inkscape:transform-center-y="21.552259"
       inkscape:export-filename="/home/michal/Obrazy/tapety/ubu_phone/ubu_phone1440x900.png"
       inkscape:export-xdpi="90"
       inkscape:export-ydpi="90" />
    <path
       inkscape:export-ydpi="90"
       inkscape:export-xdpi="90"
       inkscape:export-filename="/home/michal/Obrazy/tapety/ubu_phone/ubu_phone1440x900.png"
       sodipodi:type="arc"
       style="opacity:0.13168724;fill:url(#linearGradient5407);fill-opacity:1;stroke:none"
       id="path4720"
       sodipodi:cx="353.5"
       sodipodi:cy="441.86218"
       sodipodi:rx="21.5"
       sodipodi:ry="21.5"
       d="m 375,441.86218 c 0,11.87412 -9.62588,21.5 -21.5,21.5 -11.87412,0 -21.5,-9.62588 -21.5,-21.5 0,-11.87412 9.62588,-21.5 21.5,-21.5 11.87412,0 21.5,9.62588 21.5,21.5 z"
       transform="matrix(1.1502514,1.6725532,-1.6725532,1.1502514,457.76903,-377.73315)" />
    <path
       transform="matrix(1.2530973,0.16980172,-0.16980172,1.2530973,-192.7094,83.69124)"
       d="m 375,441.86218 c 0,11.87412 -9.62588,21.5 -21.5,21.5 -11.87412,0 -21.5,-9.62588 -21.5,-21.5 0,-11.87412 9.62588,-21.5 21.5,-21.5 11.87412,0 21.5,9.62588 21.5,21.5 z"
       sodipodi:ry="21.5"
       sodipodi:rx="21.5"
       sodipodi:cy="441.86218"
       sodipodi:cx="353.5"
       id="path4668"
       style="opacity:0.33000004;fill:url(#linearGradient5409);fill-opacity:1;stroke:none"
       sodipodi:type="arc"
       inkscape:export-filename="/home/michal/Obrazy/tapety/ubu_phone/ubu_phone1440x900.png"
       inkscape:export-xdpi="90"
       inkscape:export-ydpi="90" />
    <path
       transform="matrix(0.46468484,-0.61118671,0.61118671,0.46468484,-363.43819,880.04079)"
       d="m 375,441.86218 c 0,11.87412 -9.62588,21.5 -21.5,21.5 -11.87412,0 -21.5,-9.62588 -21.5,-21.5 0,-11.87412 9.62588,-21.5 21.5,-21.5 11.87412,0 21.5,9.62588 21.5,21.5 z"
       sodipodi:ry="21.5"
       sodipodi:rx="21.5"
       sodipodi:cy="441.86218"
       sodipodi:cx="353.5"
       id="path3808"
       style="opacity:0.32510286;fill:url(#linearGradient5411);fill-opacity:1;stroke:none"
       sodipodi:type="arc"
       inkscape:export-filename="/home/michal/Obrazy/tapety/ubu_phone/ubu_phone1440x900.png"
       inkscape:export-xdpi="90"
       inkscape:export-ydpi="90" />
    <path
       inkscape:export-ydpi="90"
       inkscape:export-xdpi="90"
       inkscape:export-filename="/home/michal/Obrazy/tapety/ubu_phone/ubu_phone1440x900.png"
       sodipodi:type="arc"
       style="opacity:0.33000004;fill:url(#linearGradient5413);fill-opacity:1;stroke:none"
       id="path4672"
       sodipodi:cx="353.5"
       sodipodi:cy="441.86218"
       sodipodi:rx="21.5"
       sodipodi:ry="21.5"
       d="m 375,441.86218 c 0,11.87412 -9.62588,21.5 -21.5,21.5 -11.87412,0 -21.5,-9.62588 -21.5,-21.5 0,-11.87412 9.62588,-21.5 21.5,-21.5 11.87412,0 21.5,9.62588 21.5,21.5 z"
       transform="matrix(1.2530973,0.16980172,-0.16980172,1.2530973,-108.86674,89.75215)" />
    <path
       inkscape:export-ydpi="90"
       inkscape:export-xdpi="90"
       inkscape:export-filename="/home/michal/Obrazy/tapety/ubu_phone/ubu_phone1440x900.png"
       sodipodi:type="arc"
       style="opacity:0.32510286;fill:url(#linearGradient5415);fill-opacity:1;stroke:none"
       id="path4700"
       sodipodi:cx="353.5"
       sodipodi:cy="441.86218"
       sodipodi:rx="21.5"
       sodipodi:ry="21.5"
       d="m 375,441.86218 c 0,11.87412 -9.62588,21.5 -21.5,21.5 -11.87412,0 -21.5,-9.62588 -21.5,-21.5 0,-11.87412 9.62588,-21.5 21.5,-21.5 11.87412,0 21.5,9.62588 21.5,21.5 z"
       transform="matrix(0.32251135,-0.42418997,0.42418997,0.32251135,-19.431186,720.18489)" />
    <path
       inkscape:export-ydpi="90"
       inkscape:export-xdpi="90"
       inkscape:export-filename="/home/michal/Obrazy/tapety/ubu_phone/ubu_phone1440x900.png"
       sodipodi:type="arc"
       style="opacity:0.33000004;fill:url(#linearGradient5417);fill-opacity:1;stroke:none"
       id="path4676"
       sodipodi:cx="353.5"
       sodipodi:cy="441.86218"
       sodipodi:rx="21.5"
       sodipodi:ry="21.5"
       d="m 375,441.86218 c 0,11.87412 -9.62588,21.5 -21.5,21.5 -11.87412,0 -21.5,-9.62588 -21.5,-21.5 0,-11.87412 9.62588,-21.5 21.5,-21.5 11.87412,0 21.5,9.62588 21.5,21.5 z"
       transform="matrix(1.2530973,0.16980172,-0.16980172,1.2530973,-44.216972,133.18871)" />
    <path
       transform="matrix(-0.26769904,-2.5600895,2.5600895,-0.26769904,-780.21026,1994.9505)"
       d="m 375,441.86218 c 0,11.87412 -9.62588,21.5 -21.5,21.5 -11.87412,0 -21.5,-9.62588 -21.5,-21.5 0,-11.87412 9.62588,-21.5 21.5,-21.5 11.87412,0 21.5,9.62588 21.5,21.5 z"
       sodipodi:ry="21.5"
       sodipodi:rx="21.5"
       sodipodi:cy="441.86218"
       sodipodi:cx="353.5"
       id="path3812"
       style="opacity:0.09465021;fill:url(#linearGradient5419);fill-opacity:1;stroke:none"
       sodipodi:type="arc"
       inkscape:export-filename="/home/michal/Obrazy/tapety/ubu_phone/ubu_phone1440x900.png"
       inkscape:export-xdpi="90"
       inkscape:export-ydpi="90" />
    <path
       transform="matrix(-2.6279984,2.0965423,-2.0965423,-2.6279984,2143.4625,1381.9704)"
       d="m 375,441.86218 c 0,11.87412 -9.62588,21.5 -21.5,21.5 -11.87412,0 -21.5,-9.62588 -21.5,-21.5 0,-11.87412 9.62588,-21.5 21.5,-21.5 11.87412,0 21.5,9.62588 21.5,21.5 z"
       sodipodi:ry="21.5"
       sodipodi:rx="21.5"
       sodipodi:cy="441.86218"
       sodipodi:cx="353.5"
       id="path4736"
       style="opacity:0.1466667;fill:url(#linearGradient5421);fill-opacity:1;stroke:none"
       sodipodi:type="arc"
       inkscape:export-filename="/home/michal/Obrazy/tapety/ubu_phone/ubu_phone1440x900.png"
       inkscape:export-xdpi="90"
       inkscape:export-ydpi="90" />
    <path
       transform="matrix(1.2530973,0.16980172,-0.16980172,1.2530973,-49.267735,312.99586)"
       d="m 375,441.86218 c 0,11.87412 -9.62588,21.5 -21.5,21.5 -11.87412,0 -21.5,-9.62588 -21.5,-21.5 0,-11.87412 9.62588,-21.5 21.5,-21.5 11.87412,0 21.5,9.62588 21.5,21.5 z"
       sodipodi:ry="21.5"
       sodipodi:rx="21.5"
       sodipodi:cy="441.86218"
       sodipodi:cx="353.5"
       id="path4680"
       style="opacity:0.33000004;fill:url(#linearGradient5423);fill-opacity:1;stroke:none"
       sodipodi:type="arc"
       inkscape:export-filename="/home/michal/Obrazy/tapety/ubu_phone/ubu_phone1440x900.png"
       inkscape:export-xdpi="90"
       inkscape:export-ydpi="90" />
    <path
       sodipodi:type="arc"
       style="opacity:0.18106995;fill:url(#linearGradient5425);fill-opacity:1;stroke:none"
       id="path2991"
       sodipodi:cx="353.5"
       sodipodi:cy="441.86218"
       sodipodi:rx="21.5"
       sodipodi:ry="21.5"
       d="m 375,441.86218 c 0,11.87412 -9.62588,21.5 -21.5,21.5 -11.87412,0 -21.5,-9.62588 -21.5,-21.5 0,-11.87412 9.62588,-21.5 21.5,-21.5 11.87412,0 21.5,9.62588 21.5,21.5 z"
       transform="matrix(2.2555889,-0.92657786,0.92657786,2.2555889,-1114.7185,235.59917)"
       inkscape:export-filename="/home/michal/Obrazy/tapety/ubu_phone/ubu_phone1440x900.png"
       inkscape:export-xdpi="90"
       inkscape:export-ydpi="90" />
    <path
       inkscape:export-ydpi="90"
       inkscape:export-xdpi="90"
       inkscape:export-filename="/home/michal/Obrazy/tapety/ubu_phone/ubu_phone1440x900.png"
       sodipodi:type="arc"
       style="opacity:0.33000004;fill:url(#linearGradient5427);fill-opacity:1;stroke:none"
       id="path4684"
       sodipodi:cx="353.5"
       sodipodi:cy="441.86218"
       sodipodi:rx="21.5"
       sodipodi:ry="21.5"
       d="m 375,441.86218 c 0,11.87412 -9.62588,21.5 -21.5,21.5 -11.87412,0 -21.5,-9.62588 -21.5,-21.5 0,-11.87412 9.62588,-21.5 21.5,-21.5 11.87412,0 21.5,9.62588 21.5,21.5 z"
       transform="matrix(1.2530973,0.16980172,-0.16980172,1.2530973,-129.06979,357.44257)" />
    <path
       transform="matrix(-0.56726532,-1.7625314,1.7625314,-0.56726532,-303.34695,1841.593)"
       d="m 375,441.86218 c 0,11.87412 -9.62588,21.5 -21.5,21.5 -11.87412,0 -21.5,-9.62588 -21.5,-21.5 0,-11.87412 9.62588,-21.5 21.5,-21.5 11.87412,0 21.5,9.62588 21.5,21.5 z"
       sodipodi:ry="21.5"
       sodipodi:rx="21.5"
       sodipodi:cy="441.86218"
       sodipodi:cx="353.5"
       id="path3806"
       style="opacity:0.14403292;fill:url(#linearGradient5429);fill-opacity:1;stroke:none"
       sodipodi:type="arc"
       inkscape:export-filename="/home/michal/Obrazy/tapety/ubu_phone/ubu_phone1440x900.png"
       inkscape:export-xdpi="90"
       inkscape:export-ydpi="90" />
    <path
       transform="matrix(1.2530973,0.16980172,-0.16980172,1.2530973,-269.48099,287.74204)"
       d="m 375,441.86218 c 0,11.87412 -9.62588,21.5 -21.5,21.5 -11.87412,0 -21.5,-9.62588 -21.5,-21.5 0,-11.87412 9.62588,-21.5 21.5,-21.5 11.87412,0 21.5,9.62588 21.5,21.5 z"
       sodipodi:ry="21.5"
       sodipodi:rx="21.5"
       sodipodi:cy="441.86218"
       sodipodi:cx="353.5"
       id="path4688"
       style="opacity:0.33000004;fill:url(#linearGradient5431);fill-opacity:1;stroke:none"
       sodipodi:type="arc"
       inkscape:export-filename="/home/michal/Obrazy/tapety/ubu_phone/ubu_phone1440x900.png"
       inkscape:export-xdpi="90"
       inkscape:export-ydpi="90" />
    <path
       transform="matrix(0.46468484,-0.61118671,0.61118671,0.46468484,-132.11325,733.56869)"
       d="m 375,441.86218 c 0,11.87412 -9.62588,21.5 -21.5,21.5 -11.87412,0 -21.5,-9.62588 -21.5,-21.5 0,-11.87412 9.62588,-21.5 21.5,-21.5 11.87412,0 21.5,9.62588 21.5,21.5 z"
       sodipodi:ry="21.5"
       sodipodi:rx="21.5"
       sodipodi:cy="441.86218"
       sodipodi:cx="353.5"
       id="path4704"
       style="opacity:0.32510286;fill:url(#linearGradient5433);fill-opacity:1;stroke:none"
       sodipodi:type="arc"
       inkscape:export-filename="/home/michal/Obrazy/tapety/ubu_phone/ubu_phone1440x900.png"
       inkscape:export-xdpi="90"
       inkscape:export-ydpi="90" />
    <path
       style="opacity:0.3;fill:#000000;fill-opacity:0;stroke:none;filter:url(#filter3886)"
       d="m 402,424.125 c -35.6904,0 -65.34388,25.89708 -71.53125,60.03125 C 337.27573,450.89138 366.72281,425.875 402,425.875 c 35.27719,0 64.72427,25.01638 71.53125,58.28125 C 467.34388,450.02208 437.6904,424.125 402,424.125 z"
       id="path3764"
       inkscape:connector-curvature="0"
       transform="matrix(1.9418636,0,0,1.9418636,-562.97822,-128.43419)"
       inkscape:export-filename="/home/michal/Obrazy/tapety/ubu_phone/ubu_phone1440x900.png"
       inkscape:export-xdpi="90"
       inkscape:export-ydpi="90" />
  </g>
</svg>
