<?xml version="1.0" encoding="UTF-8" standalone="no"?>
<!-- Created with Inkscape (http://www.inkscape.org/) -->

<svg
   xmlns:dc="http://purl.org/dc/elements/1.1/"
   xmlns:cc="http://creativecommons.org/ns#"
   xmlns:rdf="http://www.w3.org/1999/02/22-rdf-syntax-ns#"
   xmlns:svg="http://www.w3.org/2000/svg"
   xmlns="http://www.w3.org/2000/svg"
   xmlns:sodipodi="http://sodipodi.sourceforge.net/DTD/sodipodi-0.dtd"
   xmlns:inkscape="http://www.inkscape.org/namespaces/inkscape"
   version="1.1"
   viewBox="0 0 50 50"
   width="256px"
   height="256px"
   id="svg2"
   inkscape:version="0.48.4 r9939"
   sodipodi:docname="alarm.svg">
  <metadata
     id="metadata10">
    <rdf:RDF>
      <cc:Work
         rdf:about="">
        <dc:format>image/svg+xml</dc:format>
        <dc:type
           rdf:resource="http://purl.org/dc/dcmitype/StillImage" />
      </cc:Work>
    </rdf:RDF>
  </metadata>
  <defs
     id="defs8" />
  <sodipodi:namedview
     pagecolor="#ffffff"
     bordercolor="#666666"
     borderopacity="1"
     objecttolerance="10"
     gridtolerance="10"
     guidetolerance="10"
     inkscape:pageopacity="0"
     inkscape:pageshadow="2"
     inkscape:window-width="640"
     inkscape:window-height="480"
     id="namedview6"
     showgrid="false"
     inkscape:zoom="0.921875"
     inkscape:cx="128"
     inkscape:cy="128"
     inkscape:window-x="65"
     inkscape:window-y="24"
     inkscape:window-maximized="0"
     inkscape:current-layer="svg2" />
  <path
     fill="#333333"
     d="M46.2,36.5c0,3.3-8.5,5.8-21.2,5.8S3.8,39.8,3.8,36.5c0-2.3,9.6-10,9.6-11.5c0-1.7,0-7.9,0-9.6  C13.5,9.6,17.7,5,23.1,4V3.8c0-0.4,0-1.5,0-1.9C23.1,0.8,23.8,0,25,0s1.9,0.8,1.9,1.9c0,0.4,0,1.5,0,1.9V4c5.4,1,9.6,5.6,9.6,11.3  c0,1.7,0,7.9,0,9.6C36.5,26.5,46.2,34.2,46.2,36.5z M25,44.4c-1.2,0-2.3,0-3.3,0c-0.4,0.6-0.6,1-0.6,1.7c0,2.1,1.7,3.8,3.8,3.8  s3.8-1.7,3.8-3.8c0-0.8-0.2-1.2-0.6-1.7C27.3,44.4,26.2,44.4,25,44.4z"
     id="path4"
     style="fill:#ffffff" />
</svg>
