<?xml version="1.0" encoding="UTF-8" standalone="no"?>
<svg
   xmlns:dc="http://purl.org/dc/elements/1.1/"
   xmlns:cc="http://creativecommons.org/ns#"
   xmlns:rdf="http://www.w3.org/1999/02/22-rdf-syntax-ns#"
   xmlns:svg="http://www.w3.org/2000/svg"
   xmlns="http://www.w3.org/2000/svg"
   xmlns:sodipodi="http://sodipodi.sourceforge.net/DTD/sodipodi-0.dtd"
   xmlns:inkscape="http://www.inkscape.org/namespaces/inkscape"
   version="1.0"
   width="256px"
   height="256px"
   viewBox="0 0 42 50"
   style="enable-background:new 0 0 42 50;"
   id="svg2"
   inkscape:version="0.48.3.1 r9886"
   sodipodi:docname="alarm.svg">
  <metadata
     id="metadata16">
    <rdf:RDF>
      <cc:Work
         rdf:about="">
        <dc:format>image/svg+xml</dc:format>
        <dc:type
           rdf:resource="http://purl.org/dc/dcmitype/StillImage" />
      </cc:Work>
    </rdf:RDF>
  </metadata>
  <defs
     id="defs14" />
  <sodipodi:namedview
     pagecolor="#ffffff"
     bordercolor="#666666"
     borderopacity="1"
     objecttolerance="10"
     gridtolerance="10"
     guidetolerance="10"
     inkscape:pageopacity="0"
     inkscape:pageshadow="2"
     inkscape:window-width="640"
     inkscape:window-height="480"
     id="namedview12"
     showgrid="false"
     inkscape:zoom="0.921875"
     inkscape:cx="128"
     inkscape:cy="128"
     inkscape:window-x="0"
     inkscape:window-y="28"
     inkscape:window-maximized="0"
     inkscape:current-layer="svg2" />
  <g
     fill="#333333"
     id="g4"
     style="fill:#ffffff">
    <path
       d="M21,8c2.206,0,4-1.794,4-4s-1.794-4-4-4s-4,1.794-4,4S18.794,8,21,8z"
       fill="#333333"
       id="path6"
       style="fill:#ffffff" />
    <path
       d="M40.051,33.392L40.051,33.392C37.788,31.749,34,29,34,18c0-5.559-2.814-9.943-7.388-11.896C25.757,8.376,23.567,10,21,10   c-2.566,0-4.754-1.621-5.61-3.891C10.819,8.065,8,12.456,8,18c0,11-3.788,13.749-6.051,15.392C0.947,34.119,0,34.807,0,36   c0,4.206,6.28,6,21,6c14.72,0,21-1.794,21-6C42,34.807,41.053,34.119,40.051,33.392z"
       fill="#333333"
       id="path8"
       style="fill:#ffffff" />
    <path
       d="M21,44c-2.116,0-4.109-0.038-5.992-0.116C15.007,43.923,15,43.961,15,44c0,3.309,2.691,6,6,6c3.309,0,6-2.691,6-6   c0-0.039-0.008-0.077-0.009-0.116C25.109,43.962,23.116,44,21,44z"
       fill="#333333"
       id="path10"
       style="fill:#ffffff" />
  </g>
</svg>
