<?xml version="1.0" encoding="UTF-8" standalone="no"?>
<!-- Created with Inkscape (http://www.inkscape.org/) -->

<svg
   xmlns:dc="http://purl.org/dc/elements/1.1/"
   xmlns:cc="http://creativecommons.org/ns#"
   xmlns:rdf="http://www.w3.org/1999/02/22-rdf-syntax-ns#"
   xmlns:svg="http://www.w3.org/2000/svg"
   xmlns="http://www.w3.org/2000/svg"
   xmlns:sodipodi="http://sodipodi.sourceforge.net/DTD/sodipodi-0.dtd"
   xmlns:inkscape="http://www.inkscape.org/namespaces/inkscape"
   version="1.1"
   viewBox="0 0 50 50"
   width="256px"
   height="256px"
   id="svg2"
   inkscape:version="0.48.4 r9939"
   sodipodi:docname="alarm.svg">
  <metadata
     id="metadata10">
    <rdf:RDF>
      <cc:Work
         rdf:about="">
        <dc:format>image/svg+xml</dc:format>
        <dc:type
           rdf:resource="http://purl.org/dc/dcmitype/StillImage" />
      </cc:Work>
    </rdf:RDF>
  </metadata>
  <defs
     id="defs8" />
  <sodipodi:namedview
     pagecolor="#ffffff"
     bordercolor="#666666"
     borderopacity="1"
     objecttolerance="10"
     gridtolerance="10"
     guidetolerance="10"
     inkscape:pageopacity="0"
     inkscape:pageshadow="2"
     inkscape:window-width="1280"
     inkscape:window-height="962"
     id="namedview6"
     showgrid="false"
     inkscape:zoom="1.3037281"
     inkscape:cx="131.52957"
     inkscape:cy="158.57058"
     inkscape:window-x="-8"
     inkscape:window-y="-8"
     inkscape:window-maximized="1"
     inkscape:current-layer="svg2" />
  <path
     d="m 45.301137,35.644368 c 0.02152,3.160009 -8.139607,5.195438 -20.301138,5.195438 -12.161531,0 -20.3329023,-2.140562 -20.3011385,-5.554085 0.0332,-3.567919 9.1929685,-9.217362 9.1929685,-10.653763 0,-1.627922 0,-7.565047 0,-9.192968 0.09576,-5.554085 4.117684,-9.9590495 9.288728,-10.9166503 l 0,-0.1915202 c 0,-0.3830404 0,-1.4364013 0,-1.8194417 0,-1.0533609 0.670321,-1.8194416 1.819442,-1.8194416 1.149121,0 1.819442,0.7660807 1.819442,1.8194416 0,0.3830404 0,1.4364013 0,1.8194417 l 0,0.1915202 c 5.171044,0.9576008 9.192968,5.3625653 9.192968,10.8208893 0,1.627922 0,7.565047 0,9.192969 0,1.532161 9.263368,7.384076 9.288728,11.10817 z M 25.02971,42.636107 c -1.845982,0.02915 -3.646804,1.110496 -3.662914,3.317078 0,2.010961 1.627922,3.638883 3.638883,3.638883 2.010962,0 3.638884,-1.627922 3.638884,-3.638883 -0.0068,-2.160348 -1.840914,-3.304427 -3.614853,-3.317078 z"
     id="path4"
     style="fill:#ffffff"
     inkscape:connector-curvature="0"
     sodipodi:nodetypes="ssssccssssscsssccscc" />
</svg>
