<?xml version="1.0" encoding="UTF-8" standalone="no"?>
<!-- Created with Inkscape (http://www.inkscape.org/) -->

<svg
   xmlns:dc="http://purl.org/dc/elements/1.1/"
   xmlns:cc="http://creativecommons.org/ns#"
   xmlns:rdf="http://www.w3.org/1999/02/22-rdf-syntax-ns#"
   xmlns:svg="http://www.w3.org/2000/svg"
   xmlns="http://www.w3.org/2000/svg"
   xmlns:sodipodi="http://sodipodi.sourceforge.net/DTD/sodipodi-0.dtd"
   xmlns:inkscape="http://www.inkscape.org/namespaces/inkscape"
   version="1.1"
   viewBox="0 0 50 50"
   width="256px"
   height="256px"
   id="svg2"
   inkscape:version="0.48.4 r9939"
   sodipodi:docname="settings.svg">
  <metadata
     id="metadata10">
    <rdf:RDF>
      <cc:Work
         rdf:about="">
        <dc:format>image/svg+xml</dc:format>
        <dc:type
           rdf:resource="http://purl.org/dc/dcmitype/StillImage" />
      </cc:Work>
    </rdf:RDF>
  </metadata>
  <defs
     id="defs8" />
  <sodipodi:namedview
     pagecolor="#ffffff"
     bordercolor="#666666"
     borderopacity="1"
     objecttolerance="10"
     gridtolerance="10"
     guidetolerance="10"
     inkscape:pageopacity="0"
     inkscape:pageshadow="2"
     inkscape:window-width="1215"
     inkscape:window-height="1000"
     id="namedview6"
     showgrid="false"
     inkscape:zoom="1.3037281"
     inkscape:cx="138.33408"
     inkscape:cy="175.05918"
     inkscape:window-x="65"
     inkscape:window-y="24"
     inkscape:window-maximized="1"
     inkscape:current-layer="svg2" />
  <path
     style="fill:#ffffff"
     d="M 155.78125 2 C 155.55366 2.0138606 155.31827 2.0580898 155.09375 2.09375 C 155.54175 2.02175 156.01275 1.986 156.46875 2 C 156.24011 1.9925752 156.00884 1.9861394 155.78125 2 z M 155.09375 2.09375 C 154.64472 2.1650703 154.20585 2.2758965 153.78125 2.4375 C 154.20525 2.2755 154.64575 2.16575 155.09375 2.09375 z M 99.1875 2.03125 C 99.404266 2.0448576 99.629678 2.0603196 99.84375 2.09375 C 99.625198 2.0594613 99.408361 2.0450953 99.1875 2.03125 z M 97.65625 2.0625 C 97.48798 2.0872279 97.322512 2.1514514 97.15625 2.1875 C 97.38025 2.1395 97.61675 2.09025 97.84375 2.0625 C 97.781158 2.0700903 97.71864 2.0533316 97.65625 2.0625 z M 99.90625 2.09375 C 100.26919 2.1537362 100.62083 2.2560375 100.96875 2.375 C 100.6195 2.2558566 100.2704 2.1541921 99.90625 2.09375 z M 96.46875 2.34375 C 96.253653 2.4117715 96.051819 2.5068575 95.84375 2.59375 C 96.046934 2.5103678 96.259098 2.4094594 96.46875 2.34375 z M 42.65625 31.125 C 42.508019 31.289421 42.38622 31.479658 42.25 31.65625 C 42.386 31.47875 42.5395 31.290375 42.6875 31.125 C 42.682546 31.130466 42.661191 31.119519 42.65625 31.125 z M 212.09375 31.4375 C 212.82073 32.305902 213.41453 33.355281 213.8125 34.5625 C 213.41686 33.353315 212.82029 32.30452 212.09375 31.4375 z M 168.15625 78.8125 C 165.87625 78.8825 163.5925 79.98625 162.3125 81.90625 L 117.75 147.46875 L 90.125 121.84375 C 87.053 118.77175 83.447 118.77175 80.375 121.84375 L 70.65625 131.59375 C 67.58425 133.64175 67.58425 138.2405 70.65625 141.3125 L 112.125 182.78125 C 114.173 184.82925 118.28375 186.875 120.84375 186.875 C 123.40375 186.875 127.48325 184.822 129.53125 181.75 L 185.84375 98.3125 C 187.89175 94.7285 186.8845 90.6345 183.8125 87.5625 L 172.03125 79.875 C 170.87925 79.107 169.52425 78.7705 168.15625 78.8125 z M 247.6875 80.90625 C 248.0075 81.73825 248.1715 82.6185 248.1875 83.5625 C 248.17171 82.619367 248.00722 81.737094 247.6875 80.90625 z M 253.59375 144.28125 C 253.31301 144.67038 252.98605 145.04913 252.625 145.40625 C 252.99121 145.0435 253.3111 144.67682 253.59375 144.28125 z M 70.03125 239.71875 C 70.433792 239.81852 70.827688 239.86331 71.25 239.875 C 70.82825 239.8635 70.433 239.81825 70.03125 239.71875 z M 71.25 239.875 C 71.672312 239.88669 72.122534 239.86168 72.5625 239.78125 C 72.12275 239.86175 71.67175 239.8865 71.25 239.875 z M 185.375 239.71875 C 184.928 239.81825 184.479 239.8635 184 239.875 C 184.47956 239.86331 184.92721 239.81852 185.375 239.71875 z M 184 239.875 C 183.521 239.8865 183.03425 239.86175 182.53125 239.78125 C 183.02375 239.85814 183.53028 239.88645 184 239.875 z "
     transform="scale(0.1953125,0.1953125)"
     id="path2995" />
</svg>
