<?xml version="1.0" encoding="UTF-8" standalone="no"?>
<!-- Created with Inkscape (http://www.inkscape.org/) -->

<svg
   xmlns:dc="http://purl.org/dc/elements/1.1/"
   xmlns:cc="http://creativecommons.org/ns#"
   xmlns:rdf="http://www.w3.org/1999/02/22-rdf-syntax-ns#"
   xmlns:svg="http://www.w3.org/2000/svg"
   xmlns="http://www.w3.org/2000/svg"
   xmlns:sodipodi="http://sodipodi.sourceforge.net/DTD/sodipodi-0.dtd"
   xmlns:inkscape="http://www.inkscape.org/namespaces/inkscape"
   version="1.1"
   viewBox="0 0 50 50"
   width="256px"
   height="256px"
   id="svg2"
   inkscape:version="0.48.4 r9939"
   sodipodi:docname="check.svg"
   inkscape:export-filename="C:\Users\Gabriel\Documents\GitHub\Up-Clock\data\media\media\check.png"
   inkscape:export-xdpi="90"
   inkscape:export-ydpi="90">
  <metadata
     id="metadata10">
    <rdf:RDF>
      <cc:Work
         rdf:about="">
        <dc:format>image/svg+xml</dc:format>
        <dc:type
           rdf:resource="http://purl.org/dc/dcmitype/StillImage" />
      </cc:Work>
    </rdf:RDF>
  </metadata>
  <defs
     id="defs8" />
  <sodipodi:namedview
     pagecolor="#ffffff"
     bordercolor="#666666"
     borderopacity="1"
     objecttolerance="10"
     gridtolerance="10"
     guidetolerance="10"
     inkscape:pageopacity="0"
     inkscape:pageshadow="2"
     inkscape:window-width="1280"
     inkscape:window-height="962"
     id="namedview6"
     showgrid="false"
     inkscape:zoom="1.1230469"
     inkscape:cx="-84.454882"
     inkscape:cy="165.09588"
     inkscape:window-x="-8"
     inkscape:window-y="-8"
     inkscape:window-maximized="1"
     inkscape:current-layer="svg2" />
  <path
     style="fill:#ffffff;fill-opacity:1;stroke:#fff000;stroke-width:0.80204290000000000;stroke-opacity:0"
     d="M 104.65625 15.34375 C 104.85233 15.356028 105.02465 15.375837 105.21875 15.40625 C 105.02866 15.376564 104.84871 15.355833 104.65625 15.34375 z M 105.28125 15.40625 C 105.60459 15.459923 105.90863 15.550461 106.21875 15.65625 C 105.90982 15.550624 105.6035 15.459508 105.28125 15.40625 z M 102.25 15.625 C 102.06384 15.683348 101.86793 15.76971 101.6875 15.84375 C 101.87222 15.766597 102.05897 15.685401 102.25 15.625 z M 129.25 33.40625 C 76.41715 33.40625 33.59375 76.22965 33.59375 129.0625 C 33.59375 181.89535 76.41715 224.71875 129.25 224.71875 C 182.08285 224.71875 224.90625 181.89535 224.90625 129.0625 C 224.90625 76.22965 182.08285 33.40625 129.25 33.40625 z M 54.46875 41.1875 C 54.337371 41.334336 54.214531 41.498646 54.09375 41.65625 C 54.214684 41.499455 54.337115 41.333492 54.46875 41.1875 z M 165.875 83.53125 C 167.08967 83.493951 168.32087 83.786833 169.34375 84.46875 L 179.78125 91.3125 C 182.50895 94.040185 183.41221 97.66145 181.59375 100.84375 L 131.59375 174.9375 C 129.77529 177.6652 126.14807 179.5 123.875 179.5 C 121.60192 179.5 117.94347 177.66222 116.125 175.84375 L 79.3125 139.03125 C 76.584805 136.30356 76.584805 132.22472 79.3125 130.40625 L 87.9375 121.75 C 90.66519 119.02231 93.86606 119.02231 96.59375 121.75 L 121.125 144.5 L 160.6875 86.28125 C 161.82404 84.576438 163.85054 83.593356 165.875 83.53125 z "
     transform="scale(0.1953125,0.1953125)"
     id="path2982" />
</svg>
