<?xml version="1.0" encoding="UTF-8" standalone="no"?>
<!-- Created with Inkscape (http://www.inkscape.org/) -->

<svg
   xmlns:dc="http://purl.org/dc/elements/1.1/"
   xmlns:cc="http://creativecommons.org/ns#"
   xmlns:rdf="http://www.w3.org/1999/02/22-rdf-syntax-ns#"
   xmlns:svg="http://www.w3.org/2000/svg"
   xmlns="http://www.w3.org/2000/svg"
   xmlns:sodipodi="http://sodipodi.sourceforge.net/DTD/sodipodi-0.dtd"
   xmlns:inkscape="http://www.inkscape.org/namespaces/inkscape"
   version="1.1"
   viewBox="0 0 50 50"
   width="256px"
   height="256px"
   id="svg2"
   inkscape:version="0.48.4 r9939"
   sodipodi:docname="cronometer.svg">
  <metadata
     id="metadata10">
    <rdf:RDF>
      <cc:Work
         rdf:about="">
        <dc:format>image/svg+xml</dc:format>
        <dc:type
           rdf:resource="http://purl.org/dc/dcmitype/StillImage" />
      </cc:Work>
    </rdf:RDF>
  </metadata>
  <defs
     id="defs8" />
  <sodipodi:namedview
     pagecolor="#ffffff"
     bordercolor="#666666"
     borderopacity="1"
     objecttolerance="10"
     gridtolerance="10"
     guidetolerance="10"
     inkscape:pageopacity="0"
     inkscape:pageshadow="2"
     inkscape:window-width="640"
     inkscape:window-height="480"
     id="namedview6"
     showgrid="false"
     inkscape:zoom="0.921875"
     inkscape:cx="128"
     inkscape:cy="128"
     inkscape:window-x="65"
     inkscape:window-y="24"
     inkscape:window-maximized="0"
     inkscape:current-layer="svg2" />
  <path
     fill="#333333"
     d="M39.6,13.7l1.9-2.5c0.4-0.4,0.4-1,0.4-1.3s-0.4-1-0.8-1.3l-2.3-1.9C38.1,6,36.7,6,36.2,6.9l-2.3,2.7  c-1.5-0.8-3.3-1.3-5-1.7V5.8c1.2,0,1.9-0.8,1.9-1.9V1.9C30.8,0.8,30,0,28.8,0h-7.7c-1.2,0-1.9,0.8-1.9,1.9v1.9  c0,1.2,0.8,1.9,1.9,1.9v2.3C11.3,9.8,3.8,18.5,3.8,28.8C3.8,40.6,13.3,50,25,50s21.2-9.4,21.2-21.2C46.2,22.9,43.7,17.5,39.6,13.7z   M25,44.2c-8.5,0-15.4-6.9-15.4-15.4S16.5,13.5,25,13.5s15.4,6.9,15.4,15.4S33.5,44.2,25,44.2z M28.8,28.8c0,2.1-1.7,3.8-3.8,3.8  c-1.9,0-3.5-1.3-3.8-3.3c-3.1-2.5-8.1-6.7-8.5-7.1c-0.6-0.6-0.8-1.3-0.4-1.9c0.4-0.6,1.3-0.8,1.9-0.4c0.2,0.2,6.2,3.3,9.8,5.2  c0.4,0,0.6-0.2,1-0.2C27.1,25,28.8,26.7,28.8,28.8z"
     id="path4"
     style="fill:#ffffff" />
</svg>
