<?xml version="1.0" encoding="UTF-8" standalone="no"?>
<!-- Created with Inkscape (http://www.inkscape.org/) -->

<svg
   xmlns:dc="http://purl.org/dc/elements/1.1/"
   xmlns:cc="http://creativecommons.org/ns#"
   xmlns:rdf="http://www.w3.org/1999/02/22-rdf-syntax-ns#"
   xmlns:svg="http://www.w3.org/2000/svg"
   xmlns="http://www.w3.org/2000/svg"
   xmlns:sodipodi="http://sodipodi.sourceforge.net/DTD/sodipodi-0.dtd"
   xmlns:inkscape="http://www.inkscape.org/namespaces/inkscape"
   width="284.45999"
   height="284.45999"
   id="svg2"
   version="1.1"
   inkscape:version="0.48.3.1 r9886"
   sodipodi:docname="point-3.svg">
  <defs
     id="defs4" />
  <sodipodi:namedview
     id="base"
     pagecolor="#ffffff"
     bordercolor="#666666"
     borderopacity="1.0"
     inkscape:pageopacity="0.0"
     inkscape:pageshadow="2"
     inkscape:zoom="2"
     inkscape:cx="33.096931"
     inkscape:cy="159.90963"
     inkscape:document-units="px"
     inkscape:current-layer="layer1"
     showgrid="false"
     inkscape:window-width="1280"
     inkscape:window-height="1000"
     inkscape:window-x="0"
     inkscape:window-y="24"
     inkscape:window-maximized="1" />
  <metadata
     id="metadata7">
    <rdf:RDF>
      <cc:Work
         rdf:about="">
        <dc:format>image/svg+xml</dc:format>
        <dc:type
           rdf:resource="http://purl.org/dc/dcmitype/StillImage" />
        <dc:title></dc:title>
      </cc:Work>
    </rdf:RDF>
  </metadata>
  <g
     inkscape:label="Camada 1"
     inkscape:groupmode="layer"
     id="layer1"
     transform="translate(0,-767.90218)">
    <path
       inkscape:transform-center-y="-230.73288"
       transform="matrix(0.70331651,0.12401368,-0.12401369,0.70331651,-34.42679,419.29564)"
       d="m 367.5,462.36218 c 0,1.933 -1.567,3.5 -3.5,3.5 -1.933,0 -3.5,-1.567 -3.5,-3.5 0,-1.93299 1.567,-3.5 3.5,-3.5 1.933,0 3.5,1.56701 3.5,3.5 z"
       sodipodi:ry="3.5"
       sodipodi:rx="3.5"
       sodipodi:cy="462.36218"
       sodipodi:cx="364"
       id="path3953"
       style="opacity:0.5;fill:#eeeeee;fill-opacity:1;stroke:none"
       sodipodi:type="arc"
       inkscape:transform-center-x="-40.409986"
       inkscape:export-filename="/home/michal/Obrazy/tapety/ubu_phone/ubu_phone1440x900.png"
       inkscape:export-xdpi="90"
       inkscape:export-ydpi="90" />
    <path
       inkscape:transform-center-y="-220.13969"
       transform="matrix(0.67102639,0.24423363,-0.24423363,0.6710264,53.726072,396.00509)"
       d="m 367.5,462.36218 c 0,1.933 -1.567,3.5 -3.5,3.5 -1.933,0 -3.5,-1.567 -3.5,-3.5 0,-1.93299 1.567,-3.5 3.5,-3.5 1.933,0 3.5,1.56701 3.5,3.5 z"
       sodipodi:ry="3.5"
       sodipodi:rx="3.5"
       sodipodi:cy="462.36218"
       sodipodi:cx="364"
       id="path3955"
       style="opacity:0.5;fill:#eeeeee;fill-opacity:1;stroke:none"
       sodipodi:type="arc"
       inkscape:transform-center-x="-79.583799"
       inkscape:export-filename="/home/michal/Obrazy/tapety/ubu_phone/ubu_phone1440x900.png"
       inkscape:export-xdpi="90"
       inkscape:export-ydpi="90" />
    <path
       inkscape:transform-center-y="-202.90319"
       transform="matrix(0.6184863,0.35708323,-0.35708323,0.61848631,144.55788,388.2655)"
       d="m 367.5,462.36218 c 0,1.933 -1.567,3.5 -3.5,3.5 -1.933,0 -3.5,-1.567 -3.5,-3.5 0,-1.93299 1.567,-3.5 3.5,-3.5 1.933,0 3.5,1.56701 3.5,3.5 z"
       sodipodi:ry="3.5"
       sodipodi:rx="3.5"
       sodipodi:cy="462.36218"
       sodipodi:cx="364"
       id="path3957"
       style="opacity:0.5;fill:#eeeeee;fill-opacity:1;stroke:none"
       sodipodi:type="arc"
       inkscape:transform-center-x="-116.35597"
       inkscape:export-filename="/home/michal/Obrazy/tapety/ubu_phone/ubu_phone1440x900.png"
       inkscape:export-xdpi="90"
       inkscape:export-ydpi="90" />
    <path
       inkscape:transform-center-y="-179.50418"
       transform="matrix(0.54716185,0.45912333,-0.45912333,0.54716185,235.35127,396.37678)"
       d="m 367.5,462.36218 c 0,1.933 -1.567,3.5 -3.5,3.5 -1.933,0 -3.5,-1.567 -3.5,-3.5 0,-1.93299 1.567,-3.5 3.5,-3.5 1.933,0 3.5,1.56701 3.5,3.5 z"
       sodipodi:ry="3.5"
       sodipodi:rx="3.5"
       sodipodi:cy="462.36218"
       sodipodi:cx="364"
       id="path3959"
       style="opacity:0.5;fill:#eeeeee;fill-opacity:1;stroke:none"
       sodipodi:type="arc"
       inkscape:transform-center-x="-149.60583"
       inkscape:export-filename="/home/michal/Obrazy/tapety/ubu_phone/ubu_phone1440x900.png"
       inkscape:export-xdpi="90"
       inkscape:export-ydpi="90" />
    <path
       inkscape:transform-center-y="-150.62188"
       transform="matrix(0.45912333,0.54716185,-0.54716185,0.45912333,323.34016,420.17081)"
       d="m 367.5,462.36218 c 0,1.933 -1.567,3.5 -3.5,3.5 -1.933,0 -3.5,-1.567 -3.5,-3.5 0,-1.93299 1.567,-3.5 3.5,-3.5 1.933,0 3.5,1.56701 3.5,3.5 z"
       sodipodi:ry="3.5"
       sodipodi:rx="3.5"
       sodipodi:cy="462.36218"
       sodipodi:cx="364"
       id="path3961"
       style="opacity:0.5;fill:#eeeeee;fill-opacity:1;stroke:none"
       sodipodi:type="arc"
       inkscape:transform-center-x="-178.29338"
       inkscape:export-filename="/home/michal/Obrazy/tapety/ubu_phone/ubu_phone1440x900.png"
       inkscape:export-xdpi="90"
       inkscape:export-ydpi="90" />
    <path
       inkscape:transform-center-y="-117.1462"
       transform="matrix(0.35708325,0.61848629,-0.61848629,0.35708325,405.8199,458.92093)"
       d="m 367.5,462.36218 c 0,1.933 -1.567,3.5 -3.5,3.5 -1.933,0 -3.5,-1.567 -3.5,-3.5 0,-1.93299 1.567,-3.5 3.5,-3.5 1.933,0 3.5,1.56701 3.5,3.5 z"
       sodipodi:ry="3.5"
       sodipodi:rx="3.5"
       sodipodi:cy="462.36218"
       sodipodi:cx="364"
       id="path3963"
       style="opacity:0.5;fill:#eeeeee;fill-opacity:1;stroke:none"
       sodipodi:type="arc"
       inkscape:transform-center-x="-201.53446"
       inkscape:export-filename="/home/michal/Obrazy/tapety/ubu_phone/ubu_phone1440x900.png"
       inkscape:export-xdpi="90"
       inkscape:export-ydpi="90" />
    <path
       inkscape:transform-center-y="-80.124275"
       transform="matrix(0.24423363,0.6710264,-0.67102639,0.24423363,480.29633,511.37178)"
       d="m 367.5,462.36218 c 0,1.933 -1.567,3.5 -3.5,3.5 -1.933,0 -3.5,-1.567 -3.5,-3.5 0,-1.93299 1.567,-3.5 3.5,-3.5 1.933,0 3.5,1.56701 3.5,3.5 z"
       sodipodi:ry="3.5"
       sodipodi:rx="3.5"
       sodipodi:cy="462.36218"
       sodipodi:cx="364"
       id="path3965"
       style="opacity:0.5;fill:#eeeeee;fill-opacity:1;stroke:none"
       sodipodi:type="arc"
       inkscape:transform-center-x="-218.65474"
       inkscape:export-filename="/home/michal/Obrazy/tapety/ubu_phone/ubu_phone1440x900.png"
       inkscape:export-xdpi="90"
       inkscape:export-ydpi="90" />
    <path
       inkscape:transform-center-y="-40.684422"
       transform="matrix(0.12401369,0.70331651,-0.70331651,0.12401368,544.56353,575.87705)"
       d="m 367.5,462.36218 c 0,1.933 -1.567,3.5 -3.5,3.5 -1.933,0 -3.5,-1.567 -3.5,-3.5 0,-1.93299 1.567,-3.5 3.5,-3.5 1.933,0 3.5,1.56701 3.5,3.5 z"
       sodipodi:ry="3.5"
       sodipodi:rx="3.5"
       sodipodi:cy="462.36218"
       sodipodi:cx="364"
       id="path3967"
       style="opacity:0.5;fill:#eeeeee;fill-opacity:1;stroke:none"
       sodipodi:type="arc"
       inkscape:transform-center-x="-229.17653"
       inkscape:export-filename="/home/michal/Obrazy/tapety/ubu_phone/ubu_phone1440x900.png"
       inkscape:export-xdpi="90"
       inkscape:export-ydpi="90" />
    <path
       transform="matrix(0,0.71428571,-0.71428571,0,596.65462,650.54494)"
       d="m 367.5,462.36218 c 0,1.933 -1.567,3.5 -3.5,3.5 -1.933,0 -3.5,-1.567 -3.5,-3.5 0,-1.93299 1.567,-3.5 3.5,-3.5 1.933,0 3.5,1.56701 3.5,3.5 z"
       sodipodi:ry="3.5"
       sodipodi:rx="3.5"
       sodipodi:cy="462.36218"
       sodipodi:cx="364"
       id="path3969"
       style="opacity:0.5;fill:#eeeeee;fill-opacity:1;stroke:none"
       sodipodi:type="arc"
       inkscape:transform-center-x="-232.75078"
       inkscape:export-filename="/home/michal/Obrazy/tapety/ubu_phone/ubu_phone1440x900.png"
       inkscape:export-xdpi="90"
       inkscape:export-ydpi="90" />
    <path
       inkscape:transform-center-y="40.684426"
       transform="matrix(-0.12401369,0.70331651,-0.70331651,-0.12401368,634.84548,733.19901)"
       d="m 367.5,462.36218 c 0,1.933 -1.567,3.5 -3.5,3.5 -1.933,0 -3.5,-1.567 -3.5,-3.5 0,-1.93299 1.567,-3.5 3.5,-3.5 1.933,0 3.5,1.56701 3.5,3.5 z"
       sodipodi:ry="3.5"
       sodipodi:rx="3.5"
       sodipodi:cy="462.36218"
       sodipodi:cx="364"
       id="path3971"
       style="opacity:0.5;fill:#eeeeee;fill-opacity:1;stroke:none"
       sodipodi:type="arc"
       inkscape:transform-center-x="-229.17649"
       inkscape:export-filename="/home/michal/Obrazy/tapety/ubu_phone/ubu_phone1440x900.png"
       inkscape:export-xdpi="90"
       inkscape:export-ydpi="90" />
    <path
       inkscape:transform-center-y="80.124287"
       transform="matrix(-0.24423363,0.6710264,-0.67102639,-0.24423363,658.09838,821.21189)"
       d="m 367.5,462.36218 c 0,1.933 -1.567,3.5 -3.5,3.5 -1.933,0 -3.5,-1.567 -3.5,-3.5 0,-1.93299 1.567,-3.5 3.5,-3.5 1.933,0 3.5,1.56701 3.5,3.5 z"
       sodipodi:ry="3.5"
       sodipodi:rx="3.5"
       sodipodi:cy="462.36218"
       sodipodi:cx="364"
       id="path3973"
       style="opacity:0.5;fill:#eeeeee;fill-opacity:1;stroke:none"
       sodipodi:type="arc"
       inkscape:transform-center-x="-218.65467"
       inkscape:export-filename="/home/michal/Obrazy/tapety/ubu_phone/ubu_phone1440x900.png"
       inkscape:export-xdpi="90"
       inkscape:export-ydpi="90" />
    <path
       inkscape:transform-center-y="150.62184"
       transform="matrix(-0.45912333,0.54716185,-0.54716185,-0.45912333,657.58189,1002.5853)"
       d="m 367.5,462.36218 c 0,1.933 -1.567,3.5 -3.5,3.5 -1.933,0 -3.5,-1.567 -3.5,-3.5 0,-1.93299 1.567,-3.5 3.5,-3.5 1.933,0 3.5,1.56701 3.5,3.5 z"
       sodipodi:ry="3.5"
       sodipodi:rx="3.5"
       sodipodi:cy="462.36218"
       sodipodi:cx="364"
       id="path3975"
       style="opacity:0.5;fill:#eeeeee;fill-opacity:1;stroke:none"
       sodipodi:type="arc"
       inkscape:transform-center-x="-178.29329"
       inkscape:export-filename="/home/michal/Obrazy/tapety/ubu_phone/ubu_phone1440x900.png"
       inkscape:export-xdpi="90"
       inkscape:export-ydpi="90" />
    <path
       inkscape:transform-center-y="179.50424"
       transform="matrix(-0.54716185,0.45912333,-0.45912333,-0.54716185,633.68517,1090.4714)"
       d="m 367.5,462.36218 c 0,1.933 -1.567,3.5 -3.5,3.5 -1.933,0 -3.5,-1.567 -3.5,-3.5 0,-1.93299 1.567,-3.5 3.5,-3.5 1.933,0 3.5,1.56701 3.5,3.5 z"
       sodipodi:ry="3.5"
       sodipodi:rx="3.5"
       sodipodi:cy="462.36218"
       sodipodi:cx="364"
       id="path3977"
       style="opacity:0.5;fill:#eeeeee;fill-opacity:1;stroke:none"
       sodipodi:type="arc"
       inkscape:transform-center-x="-149.60593"
       inkscape:export-filename="/home/michal/Obrazy/tapety/ubu_phone/ubu_phone1440x900.png"
       inkscape:export-xdpi="90"
       inkscape:export-ydpi="90" />
    <path
       inkscape:transform-center-y="202.9032"
       transform="matrix(-0.6184863,0.35708323,-0.35708323,-0.61848631,594.81591,1172.8686)"
       d="m 367.5,462.36218 c 0,1.933 -1.567,3.5 -3.5,3.5 -1.933,0 -3.5,-1.567 -3.5,-3.5 0,-1.93299 1.567,-3.5 3.5,-3.5 1.933,0 3.5,1.56701 3.5,3.5 z"
       sodipodi:ry="3.5"
       sodipodi:rx="3.5"
       sodipodi:cy="462.36218"
       sodipodi:cx="364"
       id="path3979"
       style="opacity:0.5;fill:#eeeeee;fill-opacity:1;stroke:none"
       sodipodi:type="arc"
       inkscape:transform-center-x="-116.35597"
       inkscape:export-filename="/home/michal/Obrazy/tapety/ubu_phone/ubu_phone1440x900.png"
       inkscape:export-xdpi="90"
       inkscape:export-ydpi="90" />
    <path
       inkscape:transform-center-y="220.13966"
       transform="matrix(-0.67102639,0.24423363,-0.24423363,-0.6710264,542.2333,1247.2838)"
       d="m 367.5,462.36218 c 0,1.933 -1.567,3.5 -3.5,3.5 -1.933,0 -3.5,-1.567 -3.5,-3.5 0,-1.93299 1.567,-3.5 3.5,-3.5 1.933,0 3.5,1.56701 3.5,3.5 z"
       sodipodi:ry="3.5"
       sodipodi:rx="3.5"
       sodipodi:cy="462.36218"
       sodipodi:cx="364"
       id="path3981"
       style="opacity:0.5;fill:#eeeeee;fill-opacity:1;stroke:none"
       sodipodi:type="arc"
       inkscape:transform-center-x="-79.583845"
       inkscape:export-filename="/home/michal/Obrazy/tapety/ubu_phone/ubu_phone1440x900.png"
       inkscape:export-xdpi="90"
       inkscape:export-ydpi="90" />
    <path
       inkscape:transform-center-y="230.73295"
       transform="matrix(-0.70331651,0.12401368,-0.12401369,-0.70331651,477.58765,1311.513)"
       d="m 367.5,462.36218 c 0,1.933 -1.567,3.5 -3.5,3.5 -1.933,0 -3.5,-1.567 -3.5,-3.5 0,-1.93299 1.567,-3.5 3.5,-3.5 1.933,0 3.5,1.56701 3.5,3.5 z"
       sodipodi:ry="3.5"
       sodipodi:rx="3.5"
       sodipodi:cy="462.36218"
       sodipodi:cx="364"
       id="path3983"
       style="opacity:0.5;fill:#eeeeee;fill-opacity:1;stroke:none"
       sodipodi:type="arc"
       inkscape:transform-center-x="-40.410017"
       inkscape:export-filename="/home/michal/Obrazy/tapety/ubu_phone/ubu_phone1440x900.png"
       inkscape:export-xdpi="90"
       inkscape:export-ydpi="90" />
    <path
       inkscape:transform-center-y="230.73289"
       transform="matrix(-0.70331651,-0.12401368,0.12401369,-0.70331651,319.976,1401.7949)"
       d="m 367.5,462.36218 c 0,1.933 -1.567,3.5 -3.5,3.5 -1.933,0 -3.5,-1.567 -3.5,-3.5 0,-1.93299 1.567,-3.5 3.5,-3.5 1.933,0 3.5,1.56701 3.5,3.5 z"
       sodipodi:ry="3.5"
       sodipodi:rx="3.5"
       sodipodi:cy="462.36218"
       sodipodi:cx="364"
       id="path3985"
       style="opacity:0.5;fill:#eeeeee;fill-opacity:1;stroke:none"
       sodipodi:type="arc"
       inkscape:transform-center-x="40.410066"
       inkscape:export-filename="/home/michal/Obrazy/tapety/ubu_phone/ubu_phone1440x900.png"
       inkscape:export-xdpi="90"
       inkscape:export-ydpi="90" />
    <path
       inkscape:transform-center-y="220.13966"
       transform="matrix(-0.67102639,-0.24423363,0.24423363,-0.6710264,231.82277,1425.0857)"
       d="m 367.5,462.36218 c 0,1.933 -1.567,3.5 -3.5,3.5 -1.933,0 -3.5,-1.567 -3.5,-3.5 0,-1.93299 1.567,-3.5 3.5,-3.5 1.933,0 3.5,1.56701 3.5,3.5 z"
       sodipodi:ry="3.5"
       sodipodi:rx="3.5"
       sodipodi:cy="462.36218"
       sodipodi:cx="364"
       id="path3987"
       style="opacity:0.5;fill:#eeeeee;fill-opacity:1;stroke:none"
       sodipodi:type="arc"
       inkscape:transform-center-x="79.583802"
       inkscape:export-filename="/home/michal/Obrazy/tapety/ubu_phone/ubu_phone1440x900.png"
       inkscape:export-xdpi="90"
       inkscape:export-ydpi="90" />
    <path
       inkscape:transform-center-y="202.90312"
       transform="matrix(-0.6184863,-0.35708323,0.35708323,-0.61848631,140.99138,1432.8248)"
       d="m 367.5,462.36218 c 0,1.933 -1.567,3.5 -3.5,3.5 -1.933,0 -3.5,-1.567 -3.5,-3.5 0,-1.93299 1.567,-3.5 3.5,-3.5 1.933,0 3.5,1.56701 3.5,3.5 z"
       sodipodi:ry="3.5"
       sodipodi:rx="3.5"
       sodipodi:cy="462.36218"
       sodipodi:cx="364"
       id="path3989"
       style="opacity:0.5;fill:#eeeeee;fill-opacity:1;stroke:none"
       sodipodi:type="arc"
       inkscape:transform-center-x="116.35598"
       inkscape:export-filename="/home/michal/Obrazy/tapety/ubu_phone/ubu_phone1440x900.png"
       inkscape:export-xdpi="90"
       inkscape:export-ydpi="90" />
    <path
       inkscape:transform-center-y="179.50415"
       transform="matrix(-0.54716185,-0.45912333,0.45912333,-0.54716185,50.198534,1424.7131)"
       d="m 367.5,462.36218 c 0,1.933 -1.567,3.5 -3.5,3.5 -1.933,0 -3.5,-1.567 -3.5,-3.5 0,-1.93299 1.567,-3.5 3.5,-3.5 1.933,0 3.5,1.56701 3.5,3.5 z"
       sodipodi:ry="3.5"
       sodipodi:rx="3.5"
       sodipodi:cy="462.36218"
       sodipodi:cx="364"
       id="path3991"
       style="opacity:0.5;fill:#eeeeee;fill-opacity:1;stroke:none"
       sodipodi:type="arc"
       inkscape:transform-center-x="149.60584"
       inkscape:export-filename="/home/michal/Obrazy/tapety/ubu_phone/ubu_phone1440x900.png"
       inkscape:export-xdpi="90"
       inkscape:export-ydpi="90" />
    <path
       inkscape:transform-center-y="150.62191"
       transform="matrix(-0.45912333,-0.54716185,0.54716185,-0.45912333,-37.790316,1400.9192)"
       d="m 367.5,462.36218 c 0,1.933 -1.567,3.5 -3.5,3.5 -1.933,0 -3.5,-1.567 -3.5,-3.5 0,-1.93299 1.567,-3.5 3.5,-3.5 1.933,0 3.5,1.56701 3.5,3.5 z"
       sodipodi:ry="3.5"
       sodipodi:rx="3.5"
       sodipodi:cy="462.36218"
       sodipodi:cx="364"
       id="path3993"
       style="opacity:0.5;fill:#eeeeee;fill-opacity:1;stroke:none"
       sodipodi:type="arc"
       inkscape:transform-center-x="178.29334"
       inkscape:export-filename="/home/michal/Obrazy/tapety/ubu_phone/ubu_phone1440x900.png"
       inkscape:export-xdpi="90"
       inkscape:export-ydpi="90" />
    <path
       inkscape:transform-center-y="117.14619"
       transform="matrix(-0.35708323,-0.61848631,0.6184863,-0.35708323,-120.27066,1362.1696)"
       d="m 367.5,462.36218 c 0,1.933 -1.567,3.5 -3.5,3.5 -1.933,0 -3.5,-1.567 -3.5,-3.5 0,-1.93299 1.567,-3.5 3.5,-3.5 1.933,0 3.5,1.56701 3.5,3.5 z"
       sodipodi:ry="3.5"
       sodipodi:rx="3.5"
       sodipodi:cy="462.36218"
       sodipodi:cx="364"
       id="path3995"
       style="opacity:0.5;fill:#eeeeee;fill-opacity:1;stroke:none"
       sodipodi:type="arc"
       inkscape:transform-center-x="201.53447"
       inkscape:export-filename="/home/michal/Obrazy/tapety/ubu_phone/ubu_phone1440x900.png"
       inkscape:export-xdpi="90"
       inkscape:export-ydpi="90" />
    <path
       id="path3385"
       d="m 100.505,792.67317 c -1.38071,0 -2.5,1.11929 -2.5,2.5 0,1.38072 1.11929,2.5 2.5,2.5 1.38071,0 2.5,-1.11928 2.5,-2.5 0,-1.38071 -1.11929,-2.5 -2.5,-2.5 z m 0,1 c 0.82843,0 1.5,0.67158 1.5,1.5 0,0.82843 -0.67157,1.5 -1.5,1.5 -0.82843,0 -1.5,-0.67157 -1.5,-1.5 0,-0.82842 0.67157,-1.5 1.5,-1.5 z"
       style="opacity:0.5;fill:#eeeeee;fill-opacity:1;stroke:none"
       inkscape:connector-curvature="0" />
    <path
       style="opacity:0.5;fill:#eeeeee;fill-opacity:1;stroke:none"
       d="M 121.3125 19.21875 C 119.93179 19.21875 118.8125 20.338038 118.8125 21.71875 C 118.8125 23.099462 119.93179 24.21875 121.3125 24.21875 C 122.69321 24.21875 123.8125 23.099462 123.8125 21.71875 C 123.8125 20.338038 122.69321 19.21875 121.3125 19.21875 z M 121.3125 20.21875 C 122.14093 20.21875 122.8125 20.890323 122.8125 21.71875 C 122.8125 22.547177 122.14093 23.21875 121.3125 23.21875 C 120.48407 23.21875 119.8125 22.547177 119.8125 21.71875 C 119.8125 20.890323 120.48407 20.21875 121.3125 20.21875 z "
       transform="translate(0,767.90218)"
       id="path3316" />
    <path
       sodipodi:type="arc"
       style="opacity:0.5;fill:#eeeeee;fill-opacity:1;stroke:none"
       id="path4023"
       sodipodi:cx="364"
       sodipodi:cy="462.36218"
       sodipodi:rx="3.5"
       sodipodi:ry="3.5"
       d="m 367.5,462.36218 c 0,1.933 -1.567,3.5 -3.5,3.5 -1.933,0 -3.5,-1.567 -3.5,-3.5 0,-1.93299 1.567,-3.5 3.5,-3.5 1.933,0 3.5,1.56701 3.5,3.5 z"
       transform="matrix(-0.35708325,0.61848629,-0.61848629,-0.35708325,665.77648,911.91156)"
       inkscape:transform-center-y="117.14616"
       inkscape:transform-center-x="-201.53442"
       inkscape:export-filename="/home/michal/Obrazy/tapety/ubu_phone/ubu_phone1440x900.png"
       inkscape:export-xdpi="90"
       inkscape:export-ydpi="90" />
    <path
       inkscape:transform-center-y="234.33148"
       transform="matrix(-0.71428571,0,0,-0.71428571,402.77493,1363.5907)"
       d="m 367.5,462.36218 c 0,1.933 -1.567,3.5 -3.5,3.5 -1.933,0 -3.5,-1.567 -3.5,-3.5 0,-1.93299 1.567,-3.5 3.5,-3.5 1.933,0 3.5,1.56701 3.5,3.5 z"
       sodipodi:ry="3.5"
       sodipodi:rx="3.5"
       sodipodi:cy="462.36218"
       sodipodi:cx="364"
       id="path4015"
       style="opacity:0.5;fill:#eeeeee;fill-opacity:1;stroke:none"
       sodipodi:type="arc"
       inkscape:transform-center-x="5.4089267e-05"
       inkscape:export-filename="/home/michal/Obrazy/tapety/ubu_phone/ubu_phone1440x900.png"
       inkscape:export-xdpi="90"
       inkscape:export-ydpi="90" />
    <path
       sodipodi:type="arc"
       style="opacity:0.5;fill:#eeeeee;fill-opacity:1;stroke:none"
       id="path3890"
       sodipodi:cx="364"
       sodipodi:cy="462.36218"
       sodipodi:rx="3.5"
       sodipodi:ry="3.5"
       d="m 367.5,462.36218 c 0,1.933 -1.567,3.5 -3.5,3.5 -1.933,0 -3.5,-1.567 -3.5,-3.5 0,-1.93299 1.567,-3.5 3.5,-3.5 1.933,0 3.5,1.56701 3.5,3.5 z"
       transform="matrix(0.71428571,0,0,0.71428571,-117.22504,457.49916)"
       inkscape:transform-center-y="-234.3315"
       inkscape:export-filename="/home/michal/Obrazy/tapety/ubu_phone/ubu_phone1440x900.png"
       inkscape:export-xdpi="90"
       inkscape:export-ydpi="90" />
    <path
       inkscape:connector-curvature="0"
       style="opacity:0.5;fill:#eeeeee;fill-opacity:1;stroke:none"
       d="m 63.316254,813.97875 c -1.38071,0 -2.5,1.11929 -2.5,2.5 0,1.38072 1.11929,2.5 2.5,2.5 1.38071,0 2.5,-1.11928 2.5,-2.5 0,-1.38071 -1.11929,-2.5 -2.5,-2.5 z m 0,1 c 0.82843,0 1.5,0.67158 1.5,1.5 0,0.82843 -0.67157,1.5 -1.5,1.5 -0.82843,0 -1.5,-0.67157 -1.5,-1.5 0,-0.82842 0.67157,-1.5 1.5,-1.5 z"
       id="path4334" />
    <path
       id="path4336"
       d="m 35.719376,846.65747 c -1.38071,0 -2.5,1.11929 -2.5,2.5 0,1.38072 1.11929,2.5 2.5,2.5 1.38071,0 2.5,-1.11928 2.5,-2.5 0,-1.38071 -1.11929,-2.5 -2.5,-2.5 z m 0,1 c 0.82843,0 1.5,0.67158 1.5,1.5 0,0.82843 -0.67157,1.5 -1.5,1.5 -0.82843,0 -1.5,-0.67157 -1.5,-1.5 0,-0.82842 0.67157,-1.5 1.5,-1.5 z"
       style="opacity:0.5;fill:#eeeeee;fill-opacity:1;stroke:none"
       inkscape:connector-curvature="0" />
    <path
       inkscape:connector-curvature="0"
       style="opacity:0.5;fill:#eeeeee;fill-opacity:1;stroke:none"
       d="m 26.621781,866.05108 c -1.38071,0 -2.5,1.11929 -2.5,2.5 0,1.38072 1.11929,2.5 2.5,2.5 1.38071,0 2.5,-1.11928 2.5,-2.5 0,-1.38071 -1.11929,-2.5 -2.5,-2.5 z m 0,1 c 0.82843,0 1.5,0.67158 1.5,1.5 0,0.82843 -0.67157,1.5 -1.5,1.5 -0.82843,0 -1.5,-0.67157 -1.5,-1.5 0,-0.82842 0.67157,-1.5 1.5,-1.5 z"
       id="path4338" />
    <path
       inkscape:transform-center-y="117.14619"
       transform="matrix(-0.35708323,-0.61848631,0.6184863,-0.35708323,-134.96597,1322.0992)"
       d="m 367.5,462.36218 a 3.5,3.5 0 1 1 -7,0 3.5,3.5 0 1 1 7,0 z"
       sodipodi:ry="3.5"
       sodipodi:rx="3.5"
       sodipodi:cy="462.36218"
       sodipodi:cx="364"
       id="path3035"
       style="opacity:0.5;fill:#eeeeee;fill-opacity:1;stroke:none"
       sodipodi:type="arc"
       inkscape:transform-center-x="201.53447"
       inkscape:export-filename="/home/michal/Obrazy/tapety/ubu_phone/ubu_phone1440x900.png"
       inkscape:export-xdpi="90"
       inkscape:export-ydpi="90" />
    <path
       inkscape:connector-curvature="0"
       id="path3031"
       d="m 12.258132,914.03129 c 0.01018,0.005 2.873717,0.49857 4.2061,0.64736 1.103493,0.17271 2.397456,0.56008 3.81192,0.19895 2.704472,-0.69044 3.780809,-3.55926 2.796107,-6.18649 -0.779271,-2.07912 -3.502136,-3.36916 -6.028893,-2.18328 -1.140468,0.53529 -2.010082,1.73403 -2.67615,3.15182 -0.379599,1.02121 -2.171668,4.34458 -2.109084,4.37164 z m 5.381981,-3.50502 c -0.01299,-0.58432 0.328029,-1.13077 0.894666,-1.3854 0.75551,-0.33949 1.627627,-0.0216 1.967123,0.73392 0.33949,0.75551 0.01844,1.65872 -0.73707,1.99821 -0.755519,0.33949 -1.655567,-0.0126 -1.995055,-0.76816 -0.08488,-0.18888 -0.125345,-0.3838 -0.129664,-0.57857 z"
       style="opacity:0.5;fill:#eeeeee;fill-opacity:1;stroke:none" />
    <path
       id="path4344"
       d="m 21.04264,886.72481 c -1.38071,0 -2.5,1.11929 -2.5,2.5 0,1.38072 1.11929,2.5 2.5,2.5 1.38071,0 2.5,-1.11928 2.5,-2.5 0,-1.38071 -1.11929,-2.5 -2.5,-2.5 z m 0,1 c 0.82843,0 1.5,0.67158 1.5,1.5 0,0.82843 -0.67157,1.5 -1.5,1.5 -0.82843,0 -1.5,-0.67157 -1.5,-1.5 0,-0.82842 0.67157,-1.5 1.5,-1.5 z"
       style="opacity:0.5;fill:#eeeeee;fill-opacity:1;stroke:none"
       inkscape:connector-curvature="0" />
    <path
       inkscape:connector-curvature="0"
       style="opacity:0.5;fill:#eeeeee;fill-opacity:1;stroke:none"
       d="m 48.082541,829.11245 c -1.38071,0 -2.5,1.11929 -2.5,2.5 0,1.38072 1.11929,2.5 2.5,2.5 1.38071,0 2.5,-1.11928 2.5,-2.5 0,-1.38071 -1.11929,-2.5 -2.5,-2.5 z m 0,1 c 0.82843,0 1.5,0.67158 1.5,1.5 0,0.82843 -0.67157,1.5 -1.5,1.5 -0.82843,0 -1.5,-0.67157 -1.5,-1.5 0,-0.82842 0.67157,-1.5 1.5,-1.5 z"
       id="path4346" />
    <path
       id="path4348"
       d="m 80.964,801.70817 c -1.38071,0 -2.5,1.11929 -2.5,2.5 0,1.38072 1.11929,2.5 2.5,2.5 1.38071,0 2.5,-1.11928 2.5,-2.5 0,-1.38071 -1.11929,-2.5 -2.5,-2.5 z m 0,1 c 0.82843,0 1.5,0.67158 1.5,1.5 0,0.82843 -0.67157,1.5 -1.5,1.5 -0.82843,0 -1.5,-0.67157 -1.5,-1.5 0,-0.82842 0.67157,-1.5 1.5,-1.5 z"
       style="opacity:0.5;fill:#eeeeee;fill-opacity:1;stroke:none"
       inkscape:connector-curvature="0" />
    <path
       inkscape:export-ydpi="90"
       inkscape:export-xdpi="90"
       inkscape:export-filename="/home/michal/Obrazy/tapety/ubu_phone/ubu_phone1440x900.png"
       inkscape:transform-center-x="201.53447"
       sodipodi:type="arc"
       style="opacity:0.5;fill:#eeeeee;fill-opacity:1;stroke:none"
       id="path3033"
       sodipodi:cx="364"
       sodipodi:cy="462.36218"
       sodipodi:rx="3.5"
       sodipodi:ry="3.5"
       d="m 367.5,462.36218 a 3.5,3.5 0 1 1 -7,0 3.5,3.5 0 1 1 7,0 z"
       transform="matrix(-0.35708323,-0.61848631,0.6184863,-0.35708323,-129.37738,1342.772)"
       inkscape:transform-center-y="117.14619" />
  </g>
</svg>
