<?xml version="1.0" encoding="UTF-8" standalone="no"?>
<!-- Created with Inkscape (http://www.inkscape.org/) -->

<svg
   xmlns:dc="http://purl.org/dc/elements/1.1/"
   xmlns:cc="http://creativecommons.org/ns#"
   xmlns:rdf="http://www.w3.org/1999/02/22-rdf-syntax-ns#"
   xmlns:svg="http://www.w3.org/2000/svg"
   xmlns="http://www.w3.org/2000/svg"
   xmlns:sodipodi="http://sodipodi.sourceforge.net/DTD/sodipodi-0.dtd"
   xmlns:inkscape="http://www.inkscape.org/namespaces/inkscape"
   width="284.45999"
   height="284.45999"
   id="svg2"
   version="1.1"
   inkscape:version="0.48.3.1 r9886"
   sodipodi:docname="point-2.svg">
  <defs
     id="defs4" />
  <sodipodi:namedview
     id="base"
     pagecolor="#ffffff"
     bordercolor="#666666"
     borderopacity="1.0"
     inkscape:pageopacity="0.0"
     inkscape:pageshadow="2"
     inkscape:zoom="1"
     inkscape:cx="-35.103715"
     inkscape:cy="-64.388884"
     inkscape:document-units="px"
     inkscape:current-layer="layer1"
     showgrid="false"
     inkscape:window-width="1280"
     inkscape:window-height="1000"
     inkscape:window-x="0"
     inkscape:window-y="24"
     inkscape:window-maximized="1" />
  <metadata
     id="metadata7">
    <rdf:RDF>
      <cc:Work
         rdf:about="">
        <dc:format>image/svg+xml</dc:format>
        <dc:type
           rdf:resource="http://purl.org/dc/dcmitype/StillImage" />
        <dc:title></dc:title>
      </cc:Work>
    </rdf:RDF>
  </metadata>
  <g
     inkscape:label="Camada 1"
     inkscape:groupmode="layer"
     id="layer1"
     transform="translate(0,-767.90218)">
    <path
       inkscape:transform-center-y="-230.73288"
       transform="matrix(0.70331651,0.12401368,-0.12401369,0.70331651,-34.42679,419.29564)"
       d="m 367.5,462.36218 a 3.5,3.5 0 1 1 -7,0 3.5,3.5 0 1 1 7,0 z"
       sodipodi:ry="3.5"
       sodipodi:rx="3.5"
       sodipodi:cy="462.36218"
       sodipodi:cx="364"
       id="path3953"
       style="opacity:0.5;fill:#eeeeee;fill-opacity:1;stroke:none"
       sodipodi:type="arc"
       inkscape:transform-center-x="-40.409986"
       inkscape:export-filename="/home/michal/Obrazy/tapety/ubu_phone/ubu_phone1440x900.png"
       inkscape:export-xdpi="90"
       inkscape:export-ydpi="90" />
    <path
       inkscape:transform-center-y="-220.13969"
       transform="matrix(0.67102639,0.24423363,-0.24423363,0.6710264,53.726072,396.00509)"
       d="m 367.5,462.36218 a 3.5,3.5 0 1 1 -7,0 3.5,3.5 0 1 1 7,0 z"
       sodipodi:ry="3.5"
       sodipodi:rx="3.5"
       sodipodi:cy="462.36218"
       sodipodi:cx="364"
       id="path3955"
       style="opacity:0.5;fill:#eeeeee;fill-opacity:1;stroke:none"
       sodipodi:type="arc"
       inkscape:transform-center-x="-79.583799"
       inkscape:export-filename="/home/michal/Obrazy/tapety/ubu_phone/ubu_phone1440x900.png"
       inkscape:export-xdpi="90"
       inkscape:export-ydpi="90" />
    <path
       inkscape:transform-center-y="-202.90319"
       transform="matrix(0.6184863,0.35708323,-0.35708323,0.61848631,144.55788,388.2655)"
       d="m 367.5,462.36218 a 3.5,3.5 0 1 1 -7,0 3.5,3.5 0 1 1 7,0 z"
       sodipodi:ry="3.5"
       sodipodi:rx="3.5"
       sodipodi:cy="462.36218"
       sodipodi:cx="364"
       id="path3957"
       style="opacity:0.5;fill:#eeeeee;fill-opacity:1;stroke:none"
       sodipodi:type="arc"
       inkscape:transform-center-x="-116.35597"
       inkscape:export-filename="/home/michal/Obrazy/tapety/ubu_phone/ubu_phone1440x900.png"
       inkscape:export-xdpi="90"
       inkscape:export-ydpi="90" />
    <path
       inkscape:transform-center-y="-179.50418"
       transform="matrix(0.54716185,0.45912333,-0.45912333,0.54716185,235.35127,396.37678)"
       d="m 367.5,462.36218 a 3.5,3.5 0 1 1 -7,0 3.5,3.5 0 1 1 7,0 z"
       sodipodi:ry="3.5"
       sodipodi:rx="3.5"
       sodipodi:cy="462.36218"
       sodipodi:cx="364"
       id="path3959"
       style="opacity:0.5;fill:#eeeeee;fill-opacity:1;stroke:none"
       sodipodi:type="arc"
       inkscape:transform-center-x="-149.60583"
       inkscape:export-filename="/home/michal/Obrazy/tapety/ubu_phone/ubu_phone1440x900.png"
       inkscape:export-xdpi="90"
       inkscape:export-ydpi="90" />
    <path
       inkscape:transform-center-y="-150.62188"
       transform="matrix(0.45912333,0.54716185,-0.54716185,0.45912333,323.34016,420.17081)"
       d="m 367.5,462.36218 a 3.5,3.5 0 1 1 -7,0 3.5,3.5 0 1 1 7,0 z"
       sodipodi:ry="3.5"
       sodipodi:rx="3.5"
       sodipodi:cy="462.36218"
       sodipodi:cx="364"
       id="path3961"
       style="opacity:0.5;fill:#eeeeee;fill-opacity:1;stroke:none"
       sodipodi:type="arc"
       inkscape:transform-center-x="-178.29338"
       inkscape:export-filename="/home/michal/Obrazy/tapety/ubu_phone/ubu_phone1440x900.png"
       inkscape:export-xdpi="90"
       inkscape:export-ydpi="90" />
    <path
       inkscape:transform-center-y="-117.1462"
       transform="matrix(0.35708325,0.61848629,-0.61848629,0.35708325,405.8199,458.92093)"
       d="m 367.5,462.36218 a 3.5,3.5 0 1 1 -7,0 3.5,3.5 0 1 1 7,0 z"
       sodipodi:ry="3.5"
       sodipodi:rx="3.5"
       sodipodi:cy="462.36218"
       sodipodi:cx="364"
       id="path3963"
       style="opacity:0.5;fill:#eeeeee;fill-opacity:1;stroke:none"
       sodipodi:type="arc"
       inkscape:transform-center-x="-201.53446"
       inkscape:export-filename="/home/michal/Obrazy/tapety/ubu_phone/ubu_phone1440x900.png"
       inkscape:export-xdpi="90"
       inkscape:export-ydpi="90" />
    <path
       inkscape:transform-center-y="-80.124275"
       transform="matrix(0.24423363,0.6710264,-0.67102639,0.24423363,480.29633,511.37178)"
       d="m 367.5,462.36218 a 3.5,3.5 0 1 1 -7,0 3.5,3.5 0 1 1 7,0 z"
       sodipodi:ry="3.5"
       sodipodi:rx="3.5"
       sodipodi:cy="462.36218"
       sodipodi:cx="364"
       id="path3965"
       style="opacity:0.5;fill:#eeeeee;fill-opacity:1;stroke:none"
       sodipodi:type="arc"
       inkscape:transform-center-x="-218.65474"
       inkscape:export-filename="/home/michal/Obrazy/tapety/ubu_phone/ubu_phone1440x900.png"
       inkscape:export-xdpi="90"
       inkscape:export-ydpi="90" />
    <path
       id="path3473"
       d="m 272.25494,889.69969 c -0.006,-0.009 -2.20741,-1.90635 -3.27326,-2.71958 -0.85724,-0.71599 -1.76741,-1.71399 -3.16605,-2.13225 -2.67418,-0.79975 -5.07338,1.10613 -5.58109,3.86552 -0.40178,2.1837 1.26899,4.69104 4.04576,4.97454 1.25333,0.12794 2.61585,-0.45238 3.91657,-1.32521 0.85102,-0.68027 4.09782,-2.60758 4.05809,-2.66299 z m -6.41836,0.23565 c -0.28956,0.50767 -0.86317,0.80074 -1.48005,0.72745 -0.8225,-0.0977 -1.40669,-0.81908 -1.30897,-1.64159 0.0977,-0.8225 0.83779,-1.43171 1.66029,-1.334 0.8225,0.0977 1.413,0.86282 1.31529,1.68532 -0.0244,0.20562 -0.09,0.39359 -0.18656,0.56282 z"
       style="opacity:0.5;fill:#eeeeee;fill-opacity:1;stroke:none"
       inkscape:connector-curvature="0" />
    <path
       inkscape:connector-curvature="0"
       style="opacity:0.5;fill:#eeeeee;fill-opacity:1;stroke:none"
       d="m 63.313,813.98417 c -1.38071,0 -2.5,1.11929 -2.5,2.5 0,1.38072 1.11929,2.5 2.5,2.5 1.38071,0 2.5,-1.11928 2.5,-2.5 0,-1.38071 -1.11929,-2.5 -2.5,-2.5 z m 0,1 c 0.82843,0 1.5,0.67158 1.5,1.5 0,0.82843 -0.67157,1.5 -1.5,1.5 -0.82843,0 -1.5,-0.67157 -1.5,-1.5 0,-0.82842 0.67157,-1.5 1.5,-1.5 z"
       id="path3477" />
    <path
       id="path3385"
       d="m 100.505,792.67317 c -1.38071,0 -2.5,1.11929 -2.5,2.5 0,1.38072 1.11929,2.5 2.5,2.5 1.38071,0 2.5,-1.11928 2.5,-2.5 0,-1.38071 -1.11929,-2.5 -2.5,-2.5 z m 0,1 c 0.82843,0 1.5,0.67158 1.5,1.5 0,0.82843 -0.67157,1.5 -1.5,1.5 -0.82843,0 -1.5,-0.67157 -1.5,-1.5 0,-0.82842 0.67157,-1.5 1.5,-1.5 z"
       style="opacity:0.5;fill:#eeeeee;fill-opacity:1;stroke:none"
       inkscape:connector-curvature="0" />
    <path
       style="opacity:0.5;fill:#eeeeee;fill-opacity:1;stroke:none"
       d="M 121.3125 19.21875 C 119.93179 19.21875 118.8125 20.338038 118.8125 21.71875 C 118.8125 23.099462 119.93179 24.21875 121.3125 24.21875 C 122.69321 24.21875 123.8125 23.099462 123.8125 21.71875 C 123.8125 20.338038 122.69321 19.21875 121.3125 19.21875 z M 121.3125 20.21875 C 122.14093 20.21875 122.8125 20.890323 122.8125 21.71875 C 122.8125 22.547177 122.14093 23.21875 121.3125 23.21875 C 120.48407 23.21875 119.8125 22.547177 119.8125 21.71875 C 119.8125 20.890323 120.48407 20.21875 121.3125 20.21875 z "
       transform="translate(0,767.90218)"
       id="path3316" />
    <path
       sodipodi:type="arc"
       style="opacity:0.5;fill:#eeeeee;fill-opacity:1;stroke:none"
       id="path3890"
       sodipodi:cx="364"
       sodipodi:cy="462.36218"
       sodipodi:rx="3.5"
       sodipodi:ry="3.5"
       d="m 367.5,462.36218 a 3.5,3.5 0 1 1 -7,0 3.5,3.5 0 1 1 7,0 z"
       transform="matrix(0.71428571,0,0,0.71428571,-117.22504,457.49916)"
       inkscape:transform-center-y="-234.3315"
       inkscape:export-filename="/home/michal/Obrazy/tapety/ubu_phone/ubu_phone1440x900.png"
       inkscape:export-xdpi="90"
       inkscape:export-ydpi="90" />
    <path
       inkscape:connector-curvature="0"
       style="opacity:0.5;fill:#eeeeee;fill-opacity:1;stroke:none"
       d="m 80.949079,801.73297 c -1.38071,0 -2.5,1.11929 -2.5,2.5 0,1.38072 1.11929,2.5 2.5,2.5 1.38071,0 2.5,-1.11928 2.5,-2.5 0,-1.38071 -1.11929,-2.5 -2.5,-2.5 z m 0,1 c 0.82843,0 1.5,0.67158 1.5,1.5 0,0.82843 -0.67157,1.5 -1.5,1.5 -0.82843,0 -1.5,-0.67157 -1.5,-1.5 0,-0.82842 0.67157,-1.5 1.5,-1.5 z"
       id="path3475" />
    <path
       id="path3479"
       d="m 48.076,829.11917 c -1.38071,0 -2.5,1.11929 -2.5,2.5 0,1.38072 1.11929,2.5 2.5,2.5 1.38071,0 2.5,-1.11928 2.5,-2.5 0,-1.38071 -1.11929,-2.5 -2.5,-2.5 z m 0,1 c 0.82843,0 1.5,0.67158 1.5,1.5 0,0.82843 -0.67157,1.5 -1.5,1.5 -0.82843,0 -1.5,-0.67157 -1.5,-1.5 0,-0.82842 0.67157,-1.5 1.5,-1.5 z"
       style="opacity:0.5;fill:#eeeeee;fill-opacity:1;stroke:none"
       inkscape:connector-curvature="0" />
    <path
       inkscape:connector-curvature="0"
       style="opacity:0.5;fill:#eeeeee;fill-opacity:1;stroke:none"
       d="m 35.716,846.65217 c -1.38071,0 -2.5,1.11929 -2.5,2.5 0,1.38072 1.11929,2.5 2.5,2.5 1.38071,0 2.5,-1.11928 2.5,-2.5 0,-1.38071 -1.11929,-2.5 -2.5,-2.5 z m 0,1 c 0.82843,0 1.5,0.67158 1.5,1.5 0,0.82843 -0.67157,1.5 -1.5,1.5 -0.82843,0 -1.5,-0.67157 -1.5,-1.5 0,-0.82842 0.67157,-1.5 1.5,-1.5 z"
       id="path3481" />
    <path
       id="path3483"
       d="m 26.609,866.05017 c -1.38071,0 -2.5,1.11929 -2.5,2.5 0,1.38072 1.11929,2.5 2.5,2.5 1.38071,0 2.5,-1.11928 2.5,-2.5 0,-1.38071 -1.11929,-2.5 -2.5,-2.5 z m 0,1 c 0.82843,0 1.5,0.67158 1.5,1.5 0,0.82843 -0.67157,1.5 -1.5,1.5 -0.82843,0 -1.5,-0.67157 -1.5,-1.5 0,-0.82842 0.67157,-1.5 1.5,-1.5 z"
       style="opacity:0.5;fill:#eeeeee;fill-opacity:1;stroke:none"
       inkscape:connector-curvature="0" />
    <path
       inkscape:connector-curvature="0"
       style="opacity:0.5;fill:#eeeeee;fill-opacity:1;stroke:none"
       d="m 21.032,886.72317 c -1.38071,0 -2.5,1.11929 -2.5,2.5 0,1.38072 1.11929,2.5 2.5,2.5 1.38071,0 2.5,-1.11928 2.5,-2.5 0,-1.38071 -1.11929,-2.5 -2.5,-2.5 z m 0,1 c 0.82843,0 1.5,0.67158 1.5,1.5 0,0.82843 -0.67157,1.5 -1.5,1.5 -0.82843,0 -1.5,-0.67157 -1.5,-1.5 0,-0.82842 0.67157,-1.5 1.5,-1.5 z"
       id="path3504" />
    <path
       id="path3506"
       d="m 19.154,908.04517 c -1.38071,0 -2.5,1.11929 -2.5,2.5 0,1.38072 1.11929,2.5 2.5,2.5 1.38071,0 2.5,-1.11928 2.5,-2.5 0,-1.38071 -1.11929,-2.5 -2.5,-2.5 z m 0,1 c 0.82843,0 1.5,0.67158 1.5,1.5 0,0.82843 -0.67157,1.5 -1.5,1.5 -0.82843,0 -1.5,-0.67157 -1.5,-1.5 0,-0.82842 0.67157,-1.5 1.5,-1.5 z"
       style="opacity:0.5;fill:#eeeeee;fill-opacity:1;stroke:none"
       inkscape:connector-curvature="0" />
    <path
       inkscape:connector-curvature="0"
       style="opacity:0.5;fill:#eeeeee;fill-opacity:1;stroke:none"
       d="m 21.032,929.36717 c -1.38071,0 -2.5,1.11929 -2.5,2.5 0,1.38072 1.11929,2.5 2.5,2.5 1.38071,0 2.5,-1.11928 2.5,-2.5 0,-1.38071 -1.11929,-2.5 -2.5,-2.5 z m 0,1 c 0.82843,0 1.5,0.67158 1.5,1.5 0,0.82843 -0.67157,1.5 -1.5,1.5 -0.82843,0 -1.5,-0.67157 -1.5,-1.5 0,-0.82842 0.67157,-1.5 1.5,-1.5 z"
       id="path3508" />
    <path
       id="path3510"
       d="m 48.076,986.97117 c -1.38071,0 -2.5,1.11929 -2.5,2.5 0,1.38072 1.11929,2.5 2.5,2.5 1.38071,0 2.5,-1.11928 2.5,-2.5 0,-1.38071 -1.11929,-2.5 -2.5,-2.5 z m 0,1 c 0.82843,0 1.5,0.67158 1.5,1.5 0,0.82843 -0.67157,1.5 -1.5,1.5 -0.82843,0 -1.5,-0.67157 -1.5,-1.5 0,-0.82842 0.67157,-1.5 1.5,-1.5 z"
       style="opacity:0.5;fill:#eeeeee;fill-opacity:1;stroke:none"
       inkscape:connector-curvature="0" />
    <path
       inkscape:connector-curvature="0"
       style="opacity:0.5;fill:#eeeeee;fill-opacity:1;stroke:none"
       d="m 266.396,908.04517 c -1.38071,0 -2.5,1.11929 -2.5,2.5 0,1.38072 1.11929,2.5 2.5,2.5 1.38071,0 2.5,-1.11928 2.5,-2.5 0,-1.38071 -1.11929,-2.5 -2.5,-2.5 z m 0,1 c 0.82843,0 1.5,0.67158 1.5,1.5 0,0.82843 -0.67157,1.5 -1.5,1.5 -0.82843,0 -1.5,-0.67157 -1.5,-1.5 0,-0.82842 0.67157,-1.5 1.5,-1.5 z"
       id="path3512" />
    <path
       id="path3514"
       d="m 35.716,969.43917 c -1.38071,0 -2.5,1.11929 -2.5,2.5 0,1.38072 1.11929,2.5 2.5,2.5 1.38071,0 2.5,-1.11928 2.5,-2.5 0,-1.38071 -1.11929,-2.5 -2.5,-2.5 z m 0,1 c 0.82843,0 1.5,0.67158 1.5,1.5 0,0.82843 -0.67157,1.5 -1.5,1.5 -0.82843,0 -1.5,-0.67157 -1.5,-1.5 0,-0.82842 0.67157,-1.5 1.5,-1.5 z"
       style="opacity:0.5;fill:#eeeeee;fill-opacity:1;stroke:none"
       inkscape:connector-curvature="0" />
    <path
       inkscape:connector-curvature="0"
       style="opacity:0.5;fill:#eeeeee;fill-opacity:1;stroke:none"
       d="m 237.47422,986.9715 c -1.38071,0 -2.5,1.11929 -2.5,2.5 0,1.38072 1.11929,2.5 2.5,2.5 1.38071,0 2.5,-1.11928 2.5,-2.5 0,-1.38071 -1.11929,-2.5 -2.5,-2.5 z m 0,1 c 0.82843,0 1.5,0.67158 1.5,1.5 0,0.82843 -0.67157,1.5 -1.5,1.5 -0.82843,0 -1.5,-0.67157 -1.5,-1.5 0,-0.82842 0.67157,-1.5 1.5,-1.5 z"
       id="path3516" />
    <path
       id="path3518"
       d="m 26.609,950.04117 c -1.38071,0 -2.5,1.11929 -2.5,2.5 0,1.38072 1.11929,2.5 2.5,2.5 1.38071,0 2.5,-1.11928 2.5,-2.5 0,-1.38071 -1.11929,-2.5 -2.5,-2.5 z m 0,1 c 0.82843,0 1.5,0.67158 1.5,1.5 0,0.82843 -0.67157,1.5 -1.5,1.5 -0.82843,0 -1.5,-0.67157 -1.5,-1.5 0,-0.82842 0.67157,-1.5 1.5,-1.5 z"
       style="opacity:0.5;fill:#eeeeee;fill-opacity:1;stroke:none"
       inkscape:connector-curvature="0" />
    <path
       inkscape:connector-curvature="0"
       style="opacity:0.5;fill:#eeeeee;fill-opacity:1;stroke:none"
       d="m 264.51472,929.37154 c -1.38071,0 -2.5,1.11929 -2.5,2.5 0,1.38072 1.11929,2.5 2.5,2.5 1.38071,0 2.5,-1.11928 2.5,-2.5 0,-1.38071 -1.11929,-2.5 -2.5,-2.5 z m 0,1 c 0.82843,0 1.5,0.67158 1.5,1.5 0,0.82843 -0.67157,1.5 -1.5,1.5 -0.82843,0 -1.5,-0.67157 -1.5,-1.5 0,-0.82842 0.67157,-1.5 1.5,-1.5 z"
       id="path3520" />
    <path
       id="path3522"
       d="m 222.23718,1002.0987 c -1.3807,0 -2.5,1.1193 -2.5,2.5 0,1.3807 1.1193,2.5 2.5,2.5 1.38071,0 2.5,-1.1193 2.5,-2.5 0,-1.3807 -1.11929,-2.5 -2.5,-2.5 z m 0,1 c 0.82843,0 1.5,0.6716 1.5,1.5 0,0.8284 -0.67157,1.5 -1.5,1.5 -0.82842,0 -1.5,-0.6716 -1.5,-1.5 0,-0.8284 0.67158,-1.5 1.5,-1.5 z"
       style="opacity:0.5;fill:#eeeeee;fill-opacity:1;stroke:none"
       inkscape:connector-curvature="0" />
    <path
       inkscape:connector-curvature="0"
       style="opacity:0.5;fill:#eeeeee;fill-opacity:1;stroke:none"
       d="m 63.317274,1002.1086 c -1.38071,0 -2.5,1.1193 -2.5,2.5 0,1.3807 1.11929,2.5 2.5,2.5 1.38071,0 2.5,-1.1193 2.5,-2.5 0,-1.3807 -1.11929,-2.5 -2.5,-2.5 z m 0,1 c 0.82843,0 1.5,0.6715 1.5,1.5 0,0.8284 -0.67157,1.5 -1.5,1.5 -0.82843,0 -1.5,-0.6716 -1.5,-1.5 0,-0.8285 0.67157,-1.5 1.5,-1.5 z"
       id="path3524" />
    <path
       id="path3526"
       d="m 80.968005,1014.3899 c -1.38071,0 -2.5,1.1193 -2.5,2.5 0,1.3808 1.11929,2.5 2.5,2.5 1.380709,0 2.5,-1.1192 2.5,-2.5 0,-1.3807 -1.119291,-2.5 -2.5,-2.5 z m 0,1 c 0.82843,0 1.5,0.6716 1.5,1.5 0,0.8285 -0.67157,1.5 -1.5,1.5 -0.82843,0 -1.5,-0.6715 -1.5,-1.5 0,-0.8284 0.67157,-1.5 1.5,-1.5 z"
       style="opacity:0.5;fill:#eeeeee;fill-opacity:1;stroke:none"
       inkscape:connector-curvature="0" />
    <path
       inkscape:connector-curvature="0"
       style="opacity:0.5;fill:#eeeeee;fill-opacity:1;stroke:none"
       d="m 121.31409,1028.9772 c -1.38071,0 -2.5,1.1193 -2.5,2.5 0,1.3807 1.11929,2.5 2.5,2.5 1.38071,0 2.5,-1.1193 2.5,-2.5 0,-1.3807 -1.11929,-2.5 -2.5,-2.5 z m 0,1 c 0.82843,0 1.5,0.6716 1.5,1.5 0,0.8284 -0.67157,1.5 -1.5,1.5 -0.82843,0 -1.5,-0.6716 -1.5,-1.5 0,-0.8284 0.67157,-1.5 1.5,-1.5 z"
       id="path3528" />
    <path
       id="path3530"
       d="m 185.06697,1023.4265 c -1.38071,0 -2.5,1.1193 -2.5,2.5 0,1.3807 1.11929,2.5 2.5,2.5 1.38071,0 2.5,-1.1193 2.5,-2.5 0,-1.3807 -1.11929,-2.5 -2.5,-2.5 z m 0,1 c 0.82843,0 1.5,0.6716 1.5,1.5 0,0.8284 -0.67157,1.5 -1.5,1.5 -0.82843,0 -1.5,-0.6716 -1.5,-1.5 0,-0.8284 0.67157,-1.5 1.5,-1.5 z"
       style="opacity:0.5;fill:#eeeeee;fill-opacity:1;stroke:none"
       inkscape:connector-curvature="0" />
    <path
       inkscape:connector-curvature="0"
       style="opacity:0.5;fill:#eeeeee;fill-opacity:1;stroke:none"
       d="m 100.49161,1023.4248 c -1.380701,0 -2.499991,1.1193 -2.499991,2.5 0,1.3807 1.11929,2.5 2.499991,2.5 1.38071,0 2.5,-1.1193 2.5,-2.5 0,-1.3807 -1.11929,-2.5 -2.5,-2.5 z m 0,1 c 0.82843,0 1.5,0.6716 1.5,1.5 0,0.8284 -0.67157,1.5 -1.5,1.5 -0.828421,0 -1.499991,-0.6716 -1.499991,-1.5 0,-0.8284 0.67157,-1.5 1.499991,-1.5 z"
       id="path3532" />
    <path
       id="path3534"
       d="m 142.77358,1030.8209 c -1.38071,0 -2.5,1.1193 -2.5,2.5 0,1.3807 1.11929,2.5 2.5,2.5 1.38071,0 2.5,-1.1193 2.5,-2.5 0,-1.3807 -1.11929,-2.5 -2.5,-2.5 z m 0,1 c 0.82843,0 1.5,0.6715 1.5,1.5 0,0.8284 -0.67157,1.5 -1.5,1.5 -0.82843,0 -1.5,-0.6716 -1.5,-1.5 0,-0.8285 0.67157,-1.5 1.5,-1.5 z"
       style="opacity:0.5;fill:#eeeeee;fill-opacity:1;stroke:none"
       inkscape:connector-curvature="0" />
    <path
       inkscape:connector-curvature="0"
       style="opacity:0.5;fill:#eeeeee;fill-opacity:1;stroke:none"
       d="m 249.82974,969.43204 c -1.38071,0 -2.5,1.11929 -2.5,2.5 0,1.38072 1.11929,2.5 2.5,2.5 1.38071,0 2.5,-1.11928 2.5,-2.5 0,-1.38071 -1.11929,-2.5 -2.5,-2.5 z m 0,1 c 0.82843,0 1.5,0.67158 1.5,1.5 0,0.82843 -0.67157,1.5 -1.5,1.5 -0.82843,0 -1.5,-0.67157 -1.5,-1.5 0,-0.82842 0.67157,-1.5 1.5,-1.5 z"
       id="path3536" />
    <path
       id="path3538"
       d="m 258.93911,950.04923 c -1.38071,0 -2.5,1.11929 -2.5,2.5 0,1.38072 1.11929,2.5 2.5,2.5 1.38071,0 2.5,-1.11928 2.5,-2.5 0,-1.38071 -1.11929,-2.5 -2.5,-2.5 z m 0,1 c 0.82843,0 1.5,0.67158 1.5,1.5 0,0.82843 -0.67157,1.5 -1.5,1.5 -0.82843,0 -1.5,-0.67157 -1.5,-1.5 0,-0.82842 0.67157,-1.5 1.5,-1.5 z"
       style="opacity:0.5;fill:#eeeeee;fill-opacity:1;stroke:none"
       inkscape:connector-curvature="0" />
    <path
       inkscape:connector-curvature="0"
       style="opacity:0.5;fill:#eeeeee;fill-opacity:1;stroke:none"
       d="m 204.60111,1014.3729 c -1.38071,0 -2.5,1.1193 -2.5,2.5 0,1.3807 1.11929,2.5 2.5,2.5 1.38071,0 2.5,-1.1193 2.5,-2.5 0,-1.3807 -1.11929,-2.5 -2.5,-2.5 z m 0,1 c 0.82843,0 1.5,0.6715 1.5,1.5 0,0.8284 -0.67157,1.5 -1.5,1.5 -0.82843,0 -1.5,-0.6716 -1.5,-1.5 0,-0.8285 0.67157,-1.5 1.5,-1.5 z"
       id="path3540" />
    <path
       id="path3542"
       d="m 164.24955,1028.9627 c -1.38071,0 -2.5,1.1193 -2.5,2.5 0,1.3807 1.11929,2.5 2.5,2.5 1.38071,0 2.5,-1.1193 2.5,-2.5 0,-1.3807 -1.11929,-2.5 -2.5,-2.5 z m 0,1 c 0.82843,0 1.5,0.6715 1.5,1.5 0,0.8284 -0.67157,1.5 -1.5,1.5 -0.82843,0 -1.5,-0.6716 -1.5,-1.5 0,-0.8285 0.67157,-1.5 1.5,-1.5 z"
       style="opacity:0.5;fill:#eeeeee;fill-opacity:1;stroke:none"
       inkscape:connector-curvature="0" />
  </g>
</svg>
