<?xml version="1.0" encoding="UTF-8" standalone="no"?>
<svg
   xmlns:dc="http://purl.org/dc/elements/1.1/"
   xmlns:cc="http://creativecommons.org/ns#"
   xmlns:rdf="http://www.w3.org/1999/02/22-rdf-syntax-ns#"
   xmlns:svg="http://www.w3.org/2000/svg"
   xmlns="http://www.w3.org/2000/svg"
   xmlns:sodipodi="http://sodipodi.sourceforge.net/DTD/sodipodi-0.dtd"
   xmlns:inkscape="http://www.inkscape.org/namespaces/inkscape"
   version="1.0"
   width="256px"
   height="256px"
   viewBox="0 0 50 50.004"
   style="enable-background:new 0 0 50 50.004;"
   id="svg2"
   inkscape:version="0.48.3.1 r9886"
   sodipodi:docname="settings.svg">
  <metadata
     id="metadata10">
    <rdf:RDF>
      <cc:Work
         rdf:about="">
        <dc:format>image/svg+xml</dc:format>
        <dc:type
           rdf:resource="http://purl.org/dc/dcmitype/StillImage" />
      </cc:Work>
    </rdf:RDF>
  </metadata>
  <defs
     id="defs8" />
  <sodipodi:namedview
     pagecolor="#ffffff"
     bordercolor="#666666"
     borderopacity="1"
     objecttolerance="10"
     gridtolerance="10"
     guidetolerance="10"
     inkscape:pageopacity="0"
     inkscape:pageshadow="2"
     inkscape:window-width="640"
     inkscape:window-height="480"
     id="namedview6"
     showgrid="false"
     inkscape:zoom="0.921875"
     inkscape:cx="128"
     inkscape:cy="128"
     inkscape:window-x="0"
     inkscape:window-y="28"
     inkscape:window-maximized="0"
     inkscape:current-layer="svg2" />
  <path
     d="M42.657,19.907c-0.382-1.325-0.91-2.599-1.575-3.802l4.278-6.098l-5.438-5.436l-6.021,4.328  c-1.213-0.675-2.497-1.209-3.83-1.593L28.791,0h-7.69l-1.187,7.282c-1.344,0.381-2.629,0.909-3.837,1.576l-6.005-4.29l-5.436,5.434  l4.223,6.038c-0.68,1.222-1.218,2.516-1.605,3.861L0,21.109v7.686l7.242,1.283c0.385,1.344,0.923,2.638,1.605,3.86l-4.28,5.986  L10,45.364l6.047-4.235c1.218,0.674,2.506,1.206,3.845,1.588l1.213,7.287h7.685l1.297-7.307c1.338-0.39,2.62-0.927,3.827-1.603  l6.085,4.27l5.438-5.441l-4.347-6.035c0.666-1.205,1.192-2.48,1.571-3.805L50,28.796l0,0v-7.69L42.657,19.907z M25,32.002  c-3.86,0-7-3.141-7-7c0-3.86,3.14-7,7-7c3.859,0,7,3.14,7,7C32,28.861,28.859,32.002,25,32.002z"
     fill="#333333"
     id="path4"
     style="fill:#ffffff" />
</svg>
