<?xml version="1.0" encoding="UTF-8" standalone="no"?>
<svg
   xmlns:dc="http://purl.org/dc/elements/1.1/"
   xmlns:cc="http://creativecommons.org/ns#"
   xmlns:rdf="http://www.w3.org/1999/02/22-rdf-syntax-ns#"
   xmlns:svg="http://www.w3.org/2000/svg"
   xmlns="http://www.w3.org/2000/svg"
   xmlns:sodipodi="http://sodipodi.sourceforge.net/DTD/sodipodi-0.dtd"
   xmlns:inkscape="http://www.inkscape.org/namespaces/inkscape"
   version="1.1"
   width="76"
   height="76"
   viewBox="0 0 76.00 76.00"
   enable-background="new 0 0 76.00 76.00"
   xml:space="preserve"
   id="svg2995"
   inkscape:version="0.48.4 r9939"
   sodipodi:docname="hide.svg"><metadata
   id="metadata3003"><rdf:RDF><cc:Work
       rdf:about=""><dc:format>image/svg+xml</dc:format><dc:type
         rdf:resource="http://purl.org/dc/dcmitype/StillImage" /></cc:Work></rdf:RDF></metadata><defs
   id="defs3001" /><sodipodi:namedview
   pagecolor="#ffffff"
   bordercolor="#666666"
   borderopacity="1"
   objecttolerance="10"
   gridtolerance="10"
   guidetolerance="10"
   inkscape:pageopacity="0"
   inkscape:pageshadow="2"
   inkscape:window-width="1280"
   inkscape:window-height="961"
   id="namedview2999"
   showgrid="false"
   inkscape:zoom="3.1052632"
   inkscape:cx="-24.433288"
   inkscape:cy="30.259801"
   inkscape:window-x="-8"
   inkscape:window-y="-8"
   inkscape:window-maximized="1"
   inkscape:current-layer="svg2995" />
	<path
   d="m 38,30.4041 c 4.195128,0 7.5959,3.400772 7.5959,7.5959 0,4.195128 -3.400772,7.595743 -7.5959,7.595743 -4.195128,0 -7.595743,-3.400615 -7.595743,-7.595743 0,-4.195128 3.400772,-7.5959 7.595743,-7.5959 z M 38,17.744423 C 55.72361,17.744423 70.915254,30.404257 70.915254,38 70.915254,45.595743 55.72361,58.255577 38,58.255577 20.27639,58.255577 5.0847459,45.595743 5.0847459,38 5.0847459,30.404257 20.27639,17.744423 38,17.744423 z m 0,6.329917 c -7.690884,0 -13.92566,6.234776 -13.92566,13.92566 0,7.690884 6.234619,13.92566 13.92566,13.92566 7.690884,0 13.92566,-6.234776 13.92566,-13.92566 0,-7.690884 -6.234776,-13.92566 -13.92566,-13.92566 z"
   id="path2997"
   style="fill:#ffffff;fill-opacity:1;stroke-width:0.2;stroke-linejoin:round"
   inkscape:connector-curvature="0"
   sodipodi:nodetypes="sssssssssssssss" />
</svg>