<?xml version="1.0" encoding="UTF-8" standalone="no"?>
<svg
   xmlns:dc="http://purl.org/dc/elements/1.1/"
   xmlns:cc="http://creativecommons.org/ns#"
   xmlns:rdf="http://www.w3.org/1999/02/22-rdf-syntax-ns#"
   xmlns:svg="http://www.w3.org/2000/svg"
   xmlns="http://www.w3.org/2000/svg"
   xmlns:sodipodi="http://sodipodi.sourceforge.net/DTD/sodipodi-0.dtd"
   xmlns:inkscape="http://www.inkscape.org/namespaces/inkscape"
   enable-background="new 0 0 141.732 141.732"
   height="200"
   id="Livello_1"
   version="1.1"
   viewBox="0 0 200.00001 200.00001"
   width="200"
   xml:space="preserve"
   inkscape:version="0.48.3.1 r9886"
   sodipodi:docname="download.svg"><metadata
     id="metadata11"><rdf:RDF><cc:Work
         rdf:about=""><dc:format>image/svg+xml</dc:format><dc:type
           rdf:resource="http://purl.org/dc/dcmitype/StillImage" /><dc:title /></cc:Work></rdf:RDF></metadata><defs
     id="defs9" /><sodipodi:namedview
     pagecolor="#ffffff"
     bordercolor="#666666"
     borderopacity="1"
     objecttolerance="10"
     gridtolerance="10"
     guidetolerance="10"
     inkscape:pageopacity="0"
     inkscape:pageshadow="2"
     inkscape:window-width="1280"
     inkscape:window-height="973"
     id="namedview7"
     showgrid="false"
     inkscape:zoom="1.6651145"
     inkscape:cx="188.11129"
     inkscape:cy="14.891623"
     inkscape:window-x="0"
     inkscape:window-y="28"
     inkscape:window-maximized="1"
     inkscape:current-layer="Livello_1" /><g
     id="Livello_1_1_"
     transform="translate(0,58.268003)" /><path
     style="fill:#e8e8e8;fill-opacity:1"
     inkscape:connector-curvature="0"
     d="m 198.28158,153.60333 v 2.8139 c 0,4.6598 -3.77907,8.44171 -8.44172,8.44171 H 9.7500977 c -4.6626376,0 -8.4417078,-3.78191 -8.4417078,-8.44171 v -2.8139 H 198.28158 z"
     id="path3881" /><path
     style="fill:#c9c9c9;fill-opacity:1"
     inkscape:connector-curvature="0"
     d="m 87.132432,150.78943 h 25.325128 c 2.3299,0 4.22085,1.89093 4.22085,4.22085 0,2.32992 -1.89095,4.22085 -4.22085,4.22085 H 87.132432 c -2.329915,0 -4.220861,-1.89093 -4.220861,-4.22085 0,-2.32992 1.890946,-4.22085 4.220861,-4.22085 z"
     id="path3883" /><path
     style="fill:#373737;fill-opacity:1"
     inkscape:connector-curvature="0"
     d="M 20.692074,35.000299 H 178.84481 c 3.35771,0 6.08279,2.72205 6.08279,6.082802 V 153.61485 H 14.609276 V 41.083101 c 0,-3.360752 2.725097,-6.082802 6.082798,-6.082802 z"
     id="path3885" /><path
     style="fill:#515153;fill-opacity:1"
     inkscape:connector-curvature="0"
     d="M 23.733472,44.124483 H 175.80343 V 144.49065 H 23.733472 V 44.124483 z"
     id="path3887" /><path
     id="path3002"
     d="m 23.733472,44.124483 16.184528,0 c 135.88255,100.171687 -0.0056,0.0338 135.88543,100.366167 l -152.069958,0 z"
     inkscape:connector-curvature="0"
     style="fill:#4b4b4d;fill-opacity:1"
     sodipodi:nodetypes="ccccc" /></svg>